<?xml version="1.0" standalone="no"?><!DOCTYPE svg PUBLIC "-//W3C//DTD SVG 1.1//EN" "http://www.w3.org/Graphics/SVG/1.1/DTD/svg11.dtd"><svg class="icon" width="16px" height="15.37px" viewBox="0 0 1066 1024" version="1.1" xmlns="http://www.w3.org/2000/svg"><path fill="#e6e6e6" d="M681.984 855.466667H198.698667V409.429333h135.253333c1.962667 0 3.882667 0.768 5.290667 2.048 1.408 1.322667 2.218667 3.072 2.218666 4.949334v41.813333a6.741333 6.741333 0 0 1-2.218666 4.906667 7.850667 7.850667 0 0 1-5.290667 2.048H265.472v223.018666h392.661333v-223.018666h-67.797333a7.850667 7.850667 0 0 1-5.290667-2.048 6.741333 6.741333 0 0 1-2.218666-4.906667v-41.813333c0-1.877333 0.810667-3.626667 2.218666-4.949334a7.850667 7.850667 0 0 1 5.290667-2.048h104.234667a22.186667 22.186667 0 0 1 0.170666 0h29.866667V855.466667h-42.666667z m-23.850667-55.765334H265.472v-55.765333h392.661333v55.765333zM472.32 170.666667h483.242667v445.994666H820.352a7.850667 7.850667 0 0 1-5.333333-2.005333 6.741333 6.741333 0 0 1-2.218667-4.949333v-41.813334c0-1.834667 0.853333-3.626667 2.218667-4.906666a7.850667 7.850667 0 0 1 5.333333-2.048h68.437333V337.92h-392.661333v223.018667h67.84c1.962667 0 3.84 0.725333 5.290667 2.048 1.408 1.28 2.176 3.072 2.176 4.906666v41.813334a6.741333 6.741333 0 0 1-2.176 4.949333 7.850667 7.850667 0 0 1-5.333334 2.005333H429.653333v-27.648V170.666667h42.666667z m23.808 55.765333h392.661333v55.722667h-392.661333V226.432z" /></svg>