<?xml version="1.0" standalone="no"?><!DOCTYPE svg PUBLIC "-//W3C//DTD SVG 1.1//EN" "http://www.w3.org/Graphics/SVG/1.1/DTD/svg11.dtd"><svg t="1710675443786" class="icon" viewBox="0 0 1024 1024" version="1.1" xmlns="http://www.w3.org/2000/svg" p-id="2014" xmlns:xlink="http://www.w3.org/1999/xlink" width="16" height="16"><path d="M512 1024a512 512 0 1 1 512-512 512 512 0 0 1-512 512z m281.875692-697.856a36.548923 36.548923 0 0 0-51.712 0l-294.163692 294.163692-166.163692-166.163692a36.548923 36.548923 0 0 0-51.712 51.712l191.684923 191.645538 0.354461 0.393847a36.588308 36.588308 0 0 0 51.712 0l0.354462-0.393847 319.645538-319.645538a36.548923 36.548923 0 0 0 0-51.712z" fill="#52247b" p-id="2015"></path></svg>