<?xml version="1.0" standalone="no"?><!DOCTYPE svg PUBLIC "-//W3C//DTD SVG 1.1//EN" "http://www.w3.org/Graphics/SVG/1.1/DTD/svg11.dtd"><svg class="icon" width="16px" height="16.00px" viewBox="0 0 1024 1024" version="1.1" xmlns="http://www.w3.org/2000/svg"><path fill="#e6e6e6" d="M818.752 160l-241.152 241.152a32 32 0 0 0 45.248 45.248L864 205.248V320a32 32 0 0 0 64 0V128a31.904 31.904 0 0 0-32-32h-192a32 32 0 0 0 0 64h114.752zM105.376 918.624A31.904 31.904 0 0 1 96 896v-192a32 32 0 0 1 64 0v114.752l241.152-241.152a32 32 0 0 1 45.248 45.248L205.248 864H320a32 32 0 0 1 0 64H128a31.904 31.904 0 0 1-22.624-9.376z"  /></svg>