<?xml version="1.0" standalone="no"?><!DOCTYPE svg PUBLIC "-//W3C//DTD SVG 1.1//EN" "http://www.w3.org/Graphics/SVG/1.1/DTD/svg11.dtd"><svg class="icon" width="16px" height="16.00px" viewBox="0 0 1024 1024" version="1.1" xmlns="http://www.w3.org/2000/svg"><path fill="#e6e6e6" d="M829.44 152.576c-38.912-38.912-90.624-60.416-145.92-60.416s-107.008 21.504-145.92 60.416C493.568 196.096 472.064 256.512 477.696 317.44l-335.36 396.288c-8.704 8.704-13.312 19.456-13.312 31.744 0 11.776 4.608 23.04 13.312 31.744l20.48 20.48-9.728 9.728c-28.672 28.672-28.672 75.776 0 104.448 14.336 14.336 33.28 21.504 52.224 21.504 18.944 0 37.888-7.168 52.224-21.504l-24.064-25.6c-16.896 16.896-38.912 11.776-53.76-2.048s-15.872-36.352-1.536-50.176l13.312-11.776L204.8 839.68c8.704 8.704 19.968 13.312 31.744 13.312 11.776 0 23.04-4.608 29.696-11.264l398.336-336.896c6.144 0.512 12.8 1.024 18.944 1.024 55.296 0 107.008-21.504 145.92-60.416 80.384-81.408 80.384-212.48 0-292.864zM237.056 793.088l-48.128-48.128 42.496-50.176 55.808 55.808-50.176 42.496zM311.296 727.04l-55.808-56.32 254.464-299.52 49.152 49.152 52.224 52.224L311.296 727.04z m476.672-324.096c-32.768 32.768-79.872 48.128-125.44 41.472L537.6 319.488c-6.656-46.08 8.192-92.672 41.472-125.44 28.16-28.16 65.024-43.52 104.448-43.52 39.424 0 76.8 15.36 104.448 43.52 57.344 57.856 57.344 151.552 0 208.896z" /></svg>