<?xml version="1.0" standalone="no"?><!DOCTYPE svg PUBLIC "-//W3C//DTD SVG 1.1//EN" "http://www.w3.org/Graphics/SVG/1.1/DTD/svg11.dtd"><svg class="icon" width="16px" height="16.00px" viewBox="0 0 1024 1024" version="1.1" xmlns="http://www.w3.org/2000/svg"><path fill="#e6e6e6" d="M845.44 256l104.96-104.96c12.8-12.8 12.8-32.64 0-45.44-12.8-12.8-32.64-12.8-45.44 0L135.68 874.88c-12.8 12.8-12.8 32.64 0 45.44a31.04 31.04 0 0 0 44.8 0l170.24-170.24 153.6 154.88c15.36 15.36 35.2 23.04 55.68 23.04 10.24 0 20.48-1.92 30.08-5.76 29.44-12.16 48.64-40.96 48.64-72.96V461.44l73.6-73.6c1.28 3.84 3.84 8.32 7.04 11.52 30.08 30.08 46.72 70.4 46.72 113.28s-16.64 83.2-46.72 113.28c-12.8 12.8-12.8 32.64 0 45.44a31.04 31.04 0 0 0 44.8 0c42.24-42.24 65.92-98.56 65.92-158.08s-23.04-115.84-65.92-158.08a26.752 26.752 0 0 0-11.52-7.04l49.28-49.28c1.28 3.84 3.84 8.32 7.04 11.52 54.4 54.4 84.48 126.72 84.48 203.52s-30.08 149.12-84.48 203.52c-12.8 12.8-12.8 32.64 0 45.44a31.04 31.04 0 0 0 44.8 0c66.56-66.56 103.04-154.88 103.04-248.96s-36.48-182.4-103.04-248.96a26.752 26.752 0 0 0-11.52-7.04zM576 848.64c0 8.96-6.4 12.8-8.96 14.08a14.72 14.72 0 0 1-16-3.2l-153.6-154.88 179.2-179.2v323.2zM248.32 672l58.88-58.88-5.12-5.12H128v-192h173.44l249.6-251.52c5.76-5.76 12.8-4.48 16-3.2 2.56 1.28 8.96 4.48 8.96 14.08v168.96l64-64V175.36c0-32-19.2-60.8-48.64-72.96-29.44-12.16-63.36-5.12-85.76 17.28L274.56 352.64H128c-35.2 0-64 28.8-64 64v192c0 35.2 28.8 64 64 64h120.32z" /></svg>