<?xml version="1.0" standalone="no"?><!DOCTYPE svg PUBLIC "-//W3C//DTD SVG 1.1//EN" "http://www.w3.org/Graphics/SVG/1.1/DTD/svg11.dtd"><svg class="icon" width="16px" height="16.00px" viewBox="0 0 1024 1024" version="1.1" xmlns="http://www.w3.org/2000/svg"><path fill="#e6e6e6" d="M512 15.36c274.10432 0 496.64 222.5408 496.64 496.64 0 274.10432-222.53568 496.64-496.64 496.64-274.0992 0-496.64-222.53568-496.64-496.64C15.36 237.9008 237.9008 15.36 512 15.36z m226.28352 522.63936a30.72 30.72 0 0 0 0-51.99872l-296.96-186.88a30.72512 30.72512 0 0 0-47.0784 25.99936v373.76a30.72512 30.72512 0 0 0 47.0784 26.00448l296.96-186.88zM664.24832 512L455.68 643.2512v-262.5024L664.24832 512z" /></svg>