<?xml version="1.0" standalone="no"?><!DOCTYPE svg PUBLIC "-//W3C//DTD SVG 1.1//EN" "http://www.w3.org/Graphics/SVG/1.1/DTD/svg11.dtd"><svg class="icon" width="16px" height="16.00px" viewBox="0 0 1024 1024" version="1.1" xmlns="http://www.w3.org/2000/svg"><path fill="#b5b3b3" d="M365.68 575.308l460.003 365.497c22.38 11.19 49.017 9.974 70.302-2.919s35.394-35.759 35.394-60.328V146.442c0-24.57-14.109-47.435-35.394-60.328-11.555-7.055-24.57-10.582-37.827-10.582a72.404 72.404 0 0 0-32.475 7.663L365.68 448.692c-22.137 20.798-39.652 36.489-39.652 63.247 0 26.88 14.96 41.476 39.652 63.37z m-202.27 373.16h-16.785c-32.476 0-58.87-26.394-58.87-58.869V134.401c0-32.475 26.394-58.869 58.87-58.869h16.784c32.476 0 58.87 26.394 58.87 58.869v755.198c0 32.475-26.394 58.869-58.87 58.869z"  /></svg>