<?xml version="1.0" standalone="no"?><!DOCTYPE svg PUBLIC "-//W3C//DTD SVG 1.1//EN" "http://www.w3.org/Graphics/SVG/1.1/DTD/svg11.dtd"><svg class="icon" width="16px" height="16.00px" viewBox="0 0 1024 1024" version="1.1" xmlns="http://www.w3.org/2000/svg"><path fill="#e6e6e6" d="M128 256m42.666667 0l682.666666 0q42.666667 0 42.666667 42.666667l0 0q0 42.666667-42.666667 42.666666l-682.666666 0q-42.666667 0-42.666667-42.666666l0 0q0-42.666667 42.666667-42.666667ZM599.168 757.248a42.666667 42.666667 0 0 1-6.656-22.869333V461.653333a42.666667 42.666667 0 0 1 64.981333-36.352l218.154667 134.058667a42.666667 42.666667 0 0 1 0.554667 72.362667l-218.154667 138.666666a42.666667 42.666667 0 0 1-58.88-13.141333z m78.677333-100.522667l95.018667-60.373333-95.018667-58.368v118.741333zM128 469.333333m42.666667 0l256 0q42.666667 0 42.666666 42.666667l0 0q0 42.666667-42.666666 42.666667l-256 0q-42.666667 0-42.666667-42.666667l0 0q0-42.666667 42.666667-42.666667ZM128 682.666667m42.666667 0l256 0q42.666667 0 42.666666 42.666666l0 0q0 42.666667-42.666666 42.666667l-256 0q-42.666667 0-42.666667-42.666667l0 0q0-42.666667 42.666667-42.666666Z" /></svg>