<svg id="图层_1" data-name="图层 1" xmlns="http://www.w3.org/2000/svg" viewBox="0 0 16 16"><defs><style>.cls-1{fill:#4f4f4f;}</style></defs><path class="cls-1" d="M6.5,2A2.5,2.5,0,1,1,4,4.5,2.5,2.5,0,0,1,6.5,2m0-1A3.5,3.5,0,1,0,10,4.5,3.5,3.5,0,0,0,6.5,1Z"/><path class="cls-1" d="M7,10a4,4,0,0,1,4,4,1,1,0,0,1-1,1H3a1,1,0,0,1-1-1,4,4,0,0,1,4-4H7M7,9H6a5,5,0,0,0-5,5,2,2,0,0,0,2,2h7a2,2,0,0,0,2-2A5,5,0,0,0,7,9Z"/><polygon class="cls-1" points="16 6 11 6 11 7 16 7 16 6 16 6"/><polygon class="cls-1" points="14 4 13 4 13 9 14 9 14 4 14 4"/></svg>