<svg id="图层_1" data-name="图层 1" xmlns="http://www.w3.org/2000/svg" xmlns:xlink="http://www.w3.org/1999/xlink" viewBox="0 0 36 36"><defs><style>.cls-1{fill:#fff;}.cls-2{fill:url(#未命名的渐变_58);}.cls-3{fill:url(#未命名的渐变_58-2);}</style><linearGradient id="未命名的渐变_58" x1="25.22" y1="26.72" x2="7.85" y2="9.35" gradientUnits="userSpaceOnUse"><stop offset="0" stop-color="#7950ff"/><stop offset="1" stop-color="#5828f7"/></linearGradient><linearGradient id="未命名的渐变_58-2" x1="26.54" y1="26.54" x2="9.29" y2="9.29" xlink:href="#未命名的渐变_58"/></defs><rect class="cls-1" width="36" height="36" rx="6"/><path class="cls-2" d="M15,22a7,7,0,0,1,10-6.32V11a3,3,0,0,0-3-3H11a3,3,0,0,0-3,3V25a3,3,0,0,0,3,3h7.41A7,7,0,0,1,15,22ZM12,11h9a1,1,0,0,1,0,2H12a1,1,0,0,1,0-2Zm-1,5a1,1,0,0,1,1-1h3a1,1,0,0,1,0,2H12A1,1,0,0,1,11,16Z"/><path class="cls-3" d="M22,16a6,6,0,1,0,6,6A6,6,0,0,0,22,16Zm3.76,4.65-3.43,4a1,1,0,0,1-.7.35h-.06a1,1,0,0,1-.68-.27l-2.57-2.4a1,1,0,0,1,1.36-1.46l1.81,1.69,2.75-3.21a1,1,0,1,1,1.52,1.3Z"/></svg>