<svg id="图层_1" data-name="图层 1" xmlns="http://www.w3.org/2000/svg" viewBox="0 0 16 16"><defs><style>.cls-1{isolation:isolate;}.cls-2{fill:#4f4f4f;}</style></defs><g class="cls-1"><path class="cls-2" d="M13.47,2a6.42,6.42,0,0,1,1.84,4.73,6.66,6.66,0,0,1-1.43,4.16,3.88,3.88,0,0,1-3,1.72c-.87,0-1.34-.49-1.41-1.48a3.52,3.52,0,0,1-2.83,1.53,2.66,2.66,0,0,1-2.1-.89,3.23,3.23,0,0,1-.79-2.24,6.27,6.27,0,0,1,1.5-4.27,4.19,4.19,0,0,1,3.32-1.7,2.07,2.07,0,0,1,2.1,1.7L11.05,4h1.07L10.58,9.81A4,4,0,0,0,10.35,11c0,.39.22.58.66.58a2.9,2.9,0,0,0,2.12-1.31,5.7,5.7,0,0,0,1.22-3.6,5.53,5.53,0,0,0-1.63-4.06A6.26,6.26,0,0,0,8.16,1a6.75,6.75,0,0,0-5,2,6.87,6.87,0,0,0-2,5.09,6.82,6.82,0,0,0,1.94,5.17,7.08,7.08,0,0,0,5.06,1.81,9.25,9.25,0,0,0,4.18-.9A7,7,0,0,0,14.82,12H16a7.7,7.7,0,0,1-3.17,2.91A10.09,10.09,0,0,1,8.14,16a8.14,8.14,0,0,1-5.89-2.16A7.74,7.74,0,0,1,0,8,7.68,7.68,0,0,1,2.31,2.37,8,8,0,0,1,8.23,0,7,7,0,0,1,13.47,2ZM6.13,6a5.34,5.34,0,0,0-1.2,3.56A2.19,2.19,0,0,0,5.4,11a1.63,1.63,0,0,0,1.33.6,2.77,2.77,0,0,0,1.82-.77A3.39,3.39,0,0,0,9.64,9.25l.49-1.88a9.11,9.11,0,0,0,.22-1,1.91,1.91,0,0,0-.41-1.16,1.38,1.38,0,0,0-1.2-.63A3.28,3.28,0,0,0,6.13,6Z"/></g></svg>