<svg id="图层_1" data-name="图层 1" xmlns="http://www.w3.org/2000/svg" viewBox="0 0 16 16"><defs><style>.cls-1{fill:#4f4f4f;}</style></defs><path class="cls-1" d="M10.5,7A2.5,2.5,0,1,1,8,9.5,2.5,2.5,0,0,1,10.5,7m0-1A3.5,3.5,0,1,0,14,9.5,3.5,3.5,0,0,0,10.5,6Z"/><polygon class="cls-1" points="14.06 15 11.62 12.02 12.45 11.47 14.89 14.45 14.06 15"/><rect class="cls-1" x="4" y="4" width="6" height="1"/><rect class="cls-1" x="4" y="7" width="2" height="1"/><path class="cls-1" d="M6,14H2.5a.5.5,0,0,1-.5-.5V2.5A.5.5,0,0,1,2.5,2h9a.5.5,0,0,1,.5.5V5h1V2.5A1.5,1.5,0,0,0,11.5,1h-9A1.5,1.5,0,0,0,1,2.5v11A1.5,1.5,0,0,0,2.5,15H6Z"/></svg>