<svg id="图层_1" data-name="图层 1" xmlns="http://www.w3.org/2000/svg" xmlns:xlink="http://www.w3.org/1999/xlink" viewBox="0 0 16 16"><defs><style>.cls-1{fill:url(#未命名的渐变_20);}</style><linearGradient id="未命名的渐变_20" x1="1.56" y1="2.85" x2="12.34" y2="17.34" gradientUnits="userSpaceOnUse"><stop offset="0" stop-color="#71b8ff"/><stop offset="1" stop-color="#1481fb"/></linearGradient></defs><path class="cls-1" d="M14.5,14H14V7.5a1.5,1.5,0,0,0-3,0V14H10V3A2,2,0,0,0,8,1H4A2,2,0,0,0,2,3V14H1.5a.5.5,0,0,0,0,1h13a.5.5,0,0,0,0-1ZM4,5H8V6H4ZM4,9H8v1H4Z"/></svg>