<svg id="图层_1" data-name="图层 1" xmlns="http://www.w3.org/2000/svg" viewBox="0 0 16 16"><defs><style>.cls-1{fill:#a7a7a7;}</style></defs><path class="cls-1" d="M2,9A1,1,0,0,1,1,8V7.14A1.12,1.12,0,0,1,2.12,6H6V2A1,1,0,0,1,7,1H8.88A1,1,0,0,1,10,2V6l3.87,0A1.14,1.14,0,0,1,15,7.13V8a1,1,0,0,1-1,1ZM2,8H14V7.23A.23.23,0,0,0,13.78,7H9V2H7V7H2.22A.23.23,0,0,0,2,7.24H2Z"/><path class="cls-1" d="M12.52,9,14,14s0,0-.05,0H2L3.5,9h9m.75-1H2.76L1,13.72a1,1,0,0,0,1,1.28H14a1,1,0,0,0,1-1.27L13.27,8Z"/><polygon class="cls-1" points="10 11 9 11 9 15 10 15 10 11 10 11"/><polygon class="cls-1" points="7 11 6 11 6 14 7 14 7 11 7 11"/></svg>