<svg id="图层_1" data-name="图层 1" xmlns="http://www.w3.org/2000/svg" xmlns:xlink="http://www.w3.org/1999/xlink" viewBox="0 0 36 36"><defs><style>.cls-1{fill:#fff;}.cls-2{fill:url(#未命名的渐变_46);}.cls-3{fill:url(#未命名的渐变_44);}</style><linearGradient id="未命名的渐变_46" x1="21.43" y1="13.43" x2="14.27" y2="6.27" gradientUnits="userSpaceOnUse"><stop offset="0" stop-color="#57dda9"/><stop offset="0.01" stop-color="#56dda8"/><stop offset="0.08" stop-color="#3bdc9d"/><stop offset="0.16" stop-color="#25db94"/><stop offset="0.25" stop-color="#14da8d"/><stop offset="0.37" stop-color="#09d989"/><stop offset="0.54" stop-color="#02d986"/><stop offset="1" stop-color="#00d985"/></linearGradient><linearGradient id="未命名的渐变_44" x1="26.48" y1="27.42" x2="10.09" y2="11.03" gradientUnits="userSpaceOnUse"><stop offset="0.03" stop-color="#57dda9"/><stop offset="1" stop-color="#00d985"/></linearGradient></defs><rect class="cls-1" width="36" height="36" rx="6"/><path class="cls-2" d="M21,9H20a1,1,0,0,0-1-1H17a1,1,0,0,0-1,1H15a1,1,0,0,0,0,2h6a1,1,0,0,0,0-2Z"/><path class="cls-3" d="M24,10H23v1a1,1,0,0,1-1,1H14a1,1,0,0,1-1-1V10H12a3,3,0,0,0-3,3V25a3,3,0,0,0,3,3H24a3,3,0,0,0,3-3V13A2.8,2.8,0,0,0,24,10Zm.75,6.66-7,8A1,1,0,0,1,17,25a1,1,0,0,1-.62-.22l-5-4a1,1,0,0,1,1.24-1.56l4.26,3.4,6.37-7.28a1,1,0,0,1,1.5,1.32Z"/></svg>