<svg id="图层_1" data-name="图层 1" xmlns="http://www.w3.org/2000/svg" xmlns:xlink="http://www.w3.org/1999/xlink" viewBox="0 0 16 16"><defs><style>.cls-1{fill:url(#未命名的渐变_44);}.cls-2{fill:url(#未命名的渐变_44-2);}</style><linearGradient id="未命名的渐变_44" x1="5" y1="2" x2="11" y2="2" gradientUnits="userSpaceOnUse"><stop offset="0.03" stop-color="#57dda9"/><stop offset="1" stop-color="#00d985"/></linearGradient><linearGradient id="未命名的渐变_44-2" x1="12.92" y1="13.42" x2="2.7" y2="3.2" xlink:href="#未命名的渐变_44"/></defs><path class="cls-1" d="M6,3h4a1,1,0,0,0,0-2H6A1,1,0,0,0,6,3Z"/><path class="cls-2" d="M12,2V3a1,1,0,0,1-1,1H5A1,1,0,0,1,4,3V2A2,2,0,0,0,2,4v9a2,2,0,0,0,2,2h8a2,2,0,0,0,2-2V4A2,2,0,0,0,12,2ZM7.51,13,4,9.08l.73-.82,2.69,3L11.19,6l.81.72Z"/></svg>