<svg id="图层_1" data-name="图层 1" xmlns="http://www.w3.org/2000/svg" viewBox="0 0 16 16"><defs><style>.cls-1{fill:#4f4f4f;}</style></defs><path class="cls-1" d="M10.26,2,13,4.74V11a1,1,0,0,1-1,1H5a1,1,0,0,1-1-1V3A1,1,0,0,1,5,2h5.26m.41-1H5A2,2,0,0,0,3,3v8a2,2,0,0,0,2,2h7a2,2,0,0,0,2-2V4.33L10.67,1Z"/><path class="cls-1" d="M12,12v1a2,2,0,0,1-2,2H3a2,2,0,0,1-2-2V5A2,2,0,0,1,3,3H4V4H3A1,1,0,0,0,2,5v8a1,1,0,0,0,1,1h7a1,1,0,0,0,1-1V12Z"/><path class="cls-1" d="M11,2.74,12.26,4H11V2.74M10.67,1H10V4a1,1,0,0,0,1,1h3V4.33L10.67,1Z"/><path class="cls-1" d="M10.5,7h-4a.5.5,0,0,0,0,1h4a.5.5,0,0,0,0-1Z"/><path class="cls-1" d="M10.5,9h-4a.5.5,0,0,0,0,1h4a.5.5,0,0,0,0-1Z"/></svg>