<svg id="图层_1" data-name="图层 1" xmlns="http://www.w3.org/2000/svg" viewBox="0 0 16 16"><defs><style>.cls-1{fill:#4f4f4f;}</style></defs><path class="cls-1" d="M12,12v1a2,2,0,0,1-2,2H3a2,2,0,0,1-2-2V5A2,2,0,0,1,3,3H4V4H3A1,1,0,0,0,2,5v8a1,1,0,0,0,1,1h7a1,1,0,0,0,1-1V12Z"/><path class="cls-1" d="M8.7,4H6.3c-.17,0-.3.22-.3.5s.13.5.3.5H8.7c.17,0,.3-.22.3-.5S8.87,4,8.7,4Z"/><path class="cls-1" d="M10.5,6h-4a.5.5,0,0,0,0,1h4a.5.5,0,0,0,0-1Z"/><path class="cls-1" d="M12,12H5a1,1,0,0,1-1-1V3A1,1,0,0,1,5,2h5.26L13,4.74V7h1V4.33L10.67,1H5A2,2,0,0,0,3,3v8a2,2,0,0,0,2,2h7a2,2,0,0,0,1.72-1Z"/><rect class="cls-1" x="8" y="9" width="6" height="1"/><polygon class="cls-1" points="12 11 15 9.5 12 8 12 11"/></svg>