<svg id="图层_1" data-name="图层 1" xmlns="http://www.w3.org/2000/svg" viewBox="0 0 16 16"><defs><style>.cls-1{fill:#4f4f4f;}</style></defs><rect class="cls-1" x="2" y="5" width="12" height="1"/><rect class="cls-1" x="7" y="2" width="2" height="1"/><path class="cls-1" d="M12,2V3h2V14H2V3H4V2H2A1,1,0,0,0,1,3V14a1,1,0,0,0,1,1H14a1,1,0,0,0,1-1V3a1,1,0,0,0-1-1Z"/><rect class="cls-1" x="5" y="1" width="1" height="3"/><rect class="cls-1" x="10" y="1" width="1" height="3"/><rect class="cls-1" x="4" y="8" width="2" height="1"/><rect class="cls-1" x="7" y="8" width="2" height="1" transform="translate(16 17) rotate(-180)"/><rect class="cls-1" x="10" y="8" width="2" height="1" transform="translate(22 17) rotate(-180)"/><rect class="cls-1" x="4" y="11" width="2" height="1"/><rect class="cls-1" x="7" y="11" width="2" height="1" transform="translate(16 23) rotate(-180)"/><rect class="cls-1" x="10" y="11" width="2" height="1" transform="translate(22 23) rotate(-180)"/></svg>