<svg id="图层_1" data-name="图层 1" xmlns="http://www.w3.org/2000/svg" viewBox="0 0 16 16"><defs><style>.cls-1{fill:#4f4f4f;}</style></defs><path class="cls-1" d="M14.48,3h-13a.5.5,0,1,0,0,1h13a.5.5,0,1,0,0-1Z"/><path class="cls-1" d="M10,2V3H6V2h4m0-1H6A1,1,0,0,0,5,2V4h6V2a1,1,0,0,0-1-1Z"/><path class="cls-1" d="M12,4v9a1,1,0,0,1-1,1H5a1,1,0,0,1-1-1V4h9m0-1H3V13a2,2,0,0,0,2,2h6a2,2,0,0,0,2-2V3Z"/><polygon class="cls-1" points="10 6 9 6 9 12 10 12 10 6 10 6"/><polygon class="cls-1" points="7 6 6 6 6 12 7 12 7 6 7 6"/></svg>