<svg id="图层_1" data-name="图层 1" xmlns="http://www.w3.org/2000/svg" viewBox="0 0 16 16"><defs><style>.cls-1{fill:#4f4f4f;}</style></defs><path class="cls-1" d="M9,2V14H2V2H9M9,1H2A1,1,0,0,0,1,2V14a1,1,0,0,0,1,1H9a1,1,0,0,0,1-1V2A1,1,0,0,0,9,1Z"/><polygon class="cls-1" points="8 5 3 5 3 6 8 6 8 5 8 5"/><polygon class="cls-1" points="8 8 3 8 3 9 8 9 8 8 8 8"/><path class="cls-1" d="M14,2v8.76l-1,2-1-2V2h2m0-1H12a1,1,0,0,0-1,1v9l2,4,2-4V2a1,1,0,0,0-1-1Z"/><polygon class="cls-1" points="14 3 12 3 12 4 14 4 14 3 14 3"/></svg>