<svg id="图层_1" data-name="图层 1" xmlns="http://www.w3.org/2000/svg" viewBox="0 0 16 16"><defs><style>.cls-1{fill:#a7a7a7;}</style></defs><polygon class="cls-1" points="2 9 1 9 1 15 2 15 2 9 2 9"/><polygon class="cls-1" points="14 14 2 14 2 15 14 15 14 14 14 14"/><polygon class="cls-1" points="14 9 13 9 13 15 14 15 14 9 14 9"/><polygon class="cls-1" points="7 10.14 8 10.14 8 1 7 1 7 10.14 7 10.14"/><path class="cls-1" d="M4.77,7,7.5,9.81,10.22,7l.78.63L7.89,10.85a.58.58,0,0,1-.78,0L4,7.63Z"/><polygon class="cls-1" points="3 9 2 9 2 10 3 10 3 9 3 9"/><polygon class="cls-1" points="13 9 12 9 12 10 13 10 13 9 13 9"/></svg>