<svg id="图层_1" data-name="图层 1" xmlns="http://www.w3.org/2000/svg" xmlns:xlink="http://www.w3.org/1999/xlink" viewBox="0 0 40 40"><defs><style>.cls-1{fill:url(#未命名的渐变_36);}.cls-2{fill:url(#未命名的渐变_15);}.cls-3{fill:url(#未命名的渐变_22);}.cls-4{fill:#fff;}</style><linearGradient id="未命名的渐变_36" x1="20" y1="4.89" x2="20" y2="34.18" gradientUnits="userSpaceOnUse"><stop offset="0" stop-color="#dce1e5"/><stop offset="0.5" stop-color="#e9edf0"/><stop offset="1" stop-color="#e0e5e9"/></linearGradient><linearGradient id="未命名的渐变_15" x1="20" y1="5.67" x2="20" y2="36.61" gradientUnits="userSpaceOnUse"><stop offset="0" stop-color="#f6f9fc"/><stop offset="0.48" stop-color="#dce1e5"/><stop offset="0.92" stop-color="#edf1f4"/></linearGradient><linearGradient id="未命名的渐变_22" x1="31.37" y1="32.87" x2="7.02" y2="8.52" gradientUnits="userSpaceOnUse"><stop offset="0.02" stop-color="#0078ef"/><stop offset="1" stop-color="#2b99ff"/></linearGradient></defs><path class="cls-1" d="M7,4A4,4,0,0,0,3,8V31a4,4,0,0,0,4,4H33a4,4,0,0,0,4-4V12a4,4,0,0,0-4-4H21.07L17.58,4.57A2,2,0,0,0,16.18,4Z"/><path class="cls-2" d="M7,5A3,3,0,0,0,4,8V31a3,3,0,0,0,3,3H33a3,3,0,0,0,3-3V12a3,3,0,0,0-3-3L20,9l-3.41-3.4A2,2,0,0,0,15.17,5Z"/><path class="cls-3" d="M7.6,7A1.65,1.65,0,0,0,6,8.69V30.31A1.65,1.65,0,0,0,7.6,32H32.4A1.65,1.65,0,0,0,34,30.31V12.69A1.65,1.65,0,0,0,32.4,11H19.83a1,1,0,0,1-.71-.29L15.71,7.29A1,1,0,0,0,15,7Z"/><rect class="cls-4" x="10" y="17" width="11" height="2"/><rect class="cls-4" x="10" y="22" width="19" height="2"/></svg>