<svg id="图层_1" data-name="图层 1" xmlns="http://www.w3.org/2000/svg" xmlns:xlink="http://www.w3.org/1999/xlink" viewBox="0 0 28 28"><defs><style>.cls-1{fill:#ebf4ff;fill-rule:evenodd;}.cls-2{fill:url(#未命名的渐变_33);}.cls-3{fill:url(#未命名的渐变_42);}.cls-4{fill:url(#未命名的渐变_32);}.cls-5{fill:url(#未命名的渐变_29);}</style><linearGradient id="未命名的渐变_33" x1="9" y1="9.5" x2="16" y2="9.5" gradientUnits="userSpaceOnUse"><stop offset="0.03" stop-color="#1471e3"/><stop offset="0.39" stop-color="#0475ff"/><stop offset="0.98" stop-color="#77b1f7"/></linearGradient><linearGradient id="未命名的渐变_42" x1="17.11" y1="17.96" x2="25.32" y2="17.96" gradientUnits="userSpaceOnUse"><stop offset="0.36" stop-color="#77b1f7"/><stop offset="0.96" stop-color="#d5e6fa"/></linearGradient><linearGradient id="未命名的渐变_32" x1="6" y1="18" x2="19" y2="18" gradientUnits="userSpaceOnUse"><stop offset="0.03" stop-color="#1471e3"/><stop offset="0.46" stop-color="#0475ff"/><stop offset="0.96" stop-color="#77b1f7"/></linearGradient><linearGradient id="未命名的渐变_29" x1="15.32" y1="9.5" x2="20.88" y2="9.5" gradientUnits="userSpaceOnUse"><stop offset="0.45" stop-color="#77b1f7"/><stop offset="1" stop-color="#d5e6fa"/></linearGradient></defs><path class="cls-1" d="M4,0H24a4,4,0,0,1,4,4V24a4,4,0,0,1-4,4H4a4,4,0,0,1-4-4V4A4,4,0,0,1,4,0Z"/><circle class="cls-2" cx="12.5" cy="9.5" r="3.5"/><path class="cls-3" d="M22,19.94v.35c0,1.09-.94,1.48-2.32,1.63A1.76,1.76,0,0,0,20,20.86v-.44A8,8,0,0,0,17.11,14C19.82,14.09,22,16.71,22,19.94Z"/><path class="cls-4" d="M19,19.94v.35C19,22,16.68,22,14,22H11c-2.8,0-5,0-5-1.71v-.35C6,16.66,8.25,14,11,14h3C16.75,14,19,16.66,19,19.94Z"/><path class="cls-5" d="M15.32,6l.18,0a3.5,3.5,0,0,1,0,7l-.18,0a4.44,4.44,0,0,0,0-7Z"/></svg>