<svg id="图层_1" data-name="图层 1" xmlns="http://www.w3.org/2000/svg" viewBox="0 0 24 24"><defs><style>.cls-1{fill:#e6f1ff;}.cls-2,.cls-3{fill:#52a9ff;}.cls-3{opacity:0.5;}</style></defs><rect class="cls-1" width="24" height="24" rx="4"/><circle class="cls-2" cx="10.5" cy="8" r="3"/><path class="cls-2" d="M11.76,12H9.24C6.9,12,5,14.33,5,17.19v.31C5,19,6.87,19,9.24,19h2.52C14,19,16,19,16,17.5v-.31C16,14.33,14.1,12,11.76,12Z"/><path class="cls-3" d="M14.15,5,14,5a3.93,3.93,0,0,1,0,6l.15,0A2.93,2.93,0,0,0,17,8,2.93,2.93,0,0,0,14.15,5Z"/><path class="cls-3" d="M15,12a7.29,7.29,0,0,1,2.36,5.67v.39a1.57,1.57,0,0,1-.26.93c1.13-.13,1.9-.48,1.9-1.44v-.31C19,14.4,17.21,12.08,15,12Z"/></svg>