<svg id="图层_1" data-name="图层 1" xmlns="http://www.w3.org/2000/svg" xmlns:xlink="http://www.w3.org/1999/xlink" viewBox="0 0 40 40"><defs><style>.cls-1{fill:url(#未命名的渐变_2);}.cls-2{fill:url(#未命名的渐变_3);}.cls-3{fill:url(#未命名的渐变_5);}.cls-4{fill:#2b99ff;}.cls-5{fill:#22b573;}.cls-6{fill:#fbb03b;}.cls-7{fill:#f25555;}.cls-8{fill:#fff;}</style><linearGradient id="未命名的渐变_2" x1="162.74" y1="-252.53" x2="162.74" y2="-252.82" gradientTransform="matrix(131.24, 0, 0, -164.76, -21336.37, -41612.14)" gradientUnits="userSpaceOnUse"><stop offset="0.19" stop-color="#dce1e5"/><stop offset="1" stop-color="#f6f9fc"/></linearGradient><linearGradient id="未命名的渐变_3" x1="162.74" y1="-252.79" x2="162.74" y2="-252.59" gradientTransform="matrix(131.24, 0, 0, -164.76, -21336.53, -41611.76)" gradientUnits="userSpaceOnUse"><stop offset="0.03" stop-color="#dce1e5"/><stop offset="1" stop-color="#f6f9fc"/></linearGradient><linearGradient id="未命名的渐变_5" x1="162.41" y1="-252.71" x2="162.41" y2="-252.95" gradientTransform="matrix(110, 0, 0, -144, -17843.41, -36391.14)" gradientUnits="userSpaceOnUse"><stop offset="0.2" stop-color="#dfe3e8"/><stop offset="1" stop-color="#f6f9fc"/></linearGradient></defs><path id="路径_20689" data-name="路径 20689" class="cls-1" d="M35,10.86,27.81,3.94A3.4,3.4,0,0,0,25.45,3H11.33A3.26,3.26,0,0,0,8,6.2V33.8A3.26,3.26,0,0,0,11.33,37H32.67A3.26,3.26,0,0,0,36,33.8V13.11A3.11,3.11,0,0,0,35,10.86Z"/><path id="路径_20687-2" data-name="路径 20687-2" class="cls-2" d="M12.11,4H25.16a3.2,3.2,0,0,1,2.2.88l6.73,6.54A3,3,0,0,1,35,13.55V33a3.07,3.07,0,0,1-3.11,3H12.11A3.07,3.07,0,0,1,9,33V7A3.07,3.07,0,0,1,12.11,4Z"/><path id="路径_20690" data-name="路径 20690" class="cls-3" d="M33,32a2,2,0,0,1-2.06,2H13.06A2,2,0,0,1,11,32V8a2,2,0,0,1,2.06-2H24.79a2.13,2.13,0,0,1,.79.15,2.19,2.19,0,0,1,.67.45l6.15,6.06a2.06,2.06,0,0,1,.44.66,2,2,0,0,1,.16.78Z"/><rect class="cls-4" x="4" y="16" width="16" height="16" rx="2"/><rect class="cls-4" x="19" y="7" width="3" height="3"/><rect class="cls-5" x="22" y="10" width="3" height="3"/><rect class="cls-6" x="19" y="13" width="3" height="3"/><path class="cls-5" d="M4,24H20a0,0,0,0,1,0,0v6a2,2,0,0,1-2,2H6a2,2,0,0,1-2-2V24A0,0,0,0,1,4,24Z"/><rect class="cls-6" x="10" y="16" width="4" height="16"/><rect class="cls-7" x="4" y="22" width="16" height="4"/><rect class="cls-7" x="9.5" y="23.5" width="5" height="1"/><polygon class="cls-8" points="15 23 9 23 9 25 15 25 15 23 15 23"/></svg>