<svg id="图层_1" data-name="图层 1" xmlns="http://www.w3.org/2000/svg" xmlns:xlink="http://www.w3.org/1999/xlink" viewBox="0 0 40 40"><defs><style>.cls-1{fill:url(#未命名的渐变_36);}.cls-2{fill:url(#未命名的渐变_38);}.cls-3{fill:url(#未命名的渐变_5);}.cls-4{fill:#9dc7f7;}.cls-5{fill:#0660ff;opacity:0.7;}.cls-6{fill:#fff;}</style><linearGradient id="未命名的渐变_36" x1="20" y1="4.07" x2="20" y2="36.07" gradientUnits="userSpaceOnUse"><stop offset="0" stop-color="#dce1e5"/><stop offset="0.5" stop-color="#e9edf0"/><stop offset="1" stop-color="#e0e5e9"/></linearGradient><linearGradient id="未命名的渐变_38" x1="20" y1="5.06" x2="20" y2="35.06" gradientUnits="userSpaceOnUse"><stop offset="0" stop-color="#f6f9fc"/><stop offset="0.48" stop-color="#dce1e5"/><stop offset="1" stop-color="#edf1f4"/></linearGradient><linearGradient id="未命名的渐变_5" x1="20" y1="7.06" x2="20" y2="33.06" gradientUnits="userSpaceOnUse"><stop offset="0.2" stop-color="#dfe3e8"/><stop offset="1" stop-color="#f6f9fc"/></linearGradient></defs><rect class="cls-1" x="4" y="4" width="32" height="32" rx="4"/><path class="cls-2" d="M31.61,35H8.39A3.39,3.39,0,0,1,5,31.61V8.39A3.39,3.39,0,0,1,8.39,5H32A3.11,3.11,0,0,1,35,8.39V31.61A3.39,3.39,0,0,1,31.61,35Z"/><rect class="cls-3" x="7" y="7" width="26" height="26" rx="2.35"/><path class="cls-4" d="M31,10.83V29.17A1.84,1.84,0,0,1,29.17,31h-.8c0-.13,0-.26,0-.39A10.6,10.6,0,0,0,9,24.65V10.83A1.84,1.84,0,0,1,10.83,9H29.17A1.84,1.84,0,0,1,31,10.83Z"/><rect class="cls-4" x="9" y="9" width="22" height="22" rx="2"/><path class="cls-5" d="M31,17.12V29.25A1.8,1.8,0,0,1,29.17,31H16.46a12.65,12.65,0,0,1-.13-1.75,11.93,11.93,0,0,1,3.57-8.47A13.1,13.1,0,0,1,29.17,17,13.83,13.83,0,0,1,31,17.12Z"/><path id="矩形_4978" data-name="矩形 4978" class="cls-6" d="M14.5,12h0A2.5,2.5,0,0,1,17,14.5h0A2.5,2.5,0,0,1,14.5,17h0A2.5,2.5,0,0,1,12,14.5h0A2.5,2.5,0,0,1,14.5,12Z"/><path class="cls-5" d="M28.38,30.62c0,.13,0,.26,0,.38H10.83A1.8,1.8,0,0,1,9,29.25V24.94a10.73,10.73,0,0,1,8.77-4.44A10.37,10.37,0,0,1,28.38,30.62Z"/></svg>