<svg id="图层_1" data-name="图层 1" xmlns="http://www.w3.org/2000/svg" viewBox="0 0 32 32"><defs><style>.cls-1{fill:#4f4f4f;}</style></defs><path class="cls-1" d="M4,18v6a4,4,0,0,0,4,4H24a4,4,0,0,0,4-4V18H26v6a2,2,0,0,1-2,2H8a2,2,0,0,1-2-2V18Z"/><path class="cls-1" d="M19,4V6h7v7h2V6.05A2.05,2.05,0,0,0,26,4Z"/><polygon class="cls-1" points="14 19 12.45 17.45 26.07 4.47 27.62 6.02 14 19"/><rect class="cls-1" x="4" y="4" width="11" height="2" rx="1"/><rect class="cls-1" x="4" y="14" width="5" height="2" rx="1"/><rect class="cls-1" x="4" y="9" width="7" height="2" rx="1"/></svg>