<svg id="图层_1" data-name="图层 1" xmlns="http://www.w3.org/2000/svg" xmlns:xlink="http://www.w3.org/1999/xlink" viewBox="0 0 36 36"><defs><style>.cls-1{fill:#fff;}.cls-2{fill:url(#未命名的渐变_35);}.cls-3{fill:url(#未命名的渐变_31);}</style><linearGradient id="未命名的渐变_35" x1="11.36" y1="5.1" x2="31.23" y2="24.96" gradientUnits="userSpaceOnUse"><stop offset="0.2" stop-color="#de5050"/><stop offset="0.81" stop-color="#f47171"/></linearGradient><linearGradient id="未命名的渐变_31" x1="4.75" y1="15.97" x2="20.36" y2="31.58" gradientUnits="userSpaceOnUse"><stop offset="0.2" stop-color="#de5050"/><stop offset="0.92" stop-color="#f47171"/></linearGradient></defs><rect class="cls-1" width="36" height="36" rx="6"/><path class="cls-2" d="M15,20.82a1.08,1.08,0,0,1,0-1.62c2.3-2.05,4.08-4.32,6.5-6.27l-.09-.13c-.24.13-.5.26-.73.4-2.65,1.63-5.3,3.26-7.92,4.94A1,1,0,0,1,11.24,18v0c-.88-.86-1.85-1.58-2.74-2.43s-.64-1.17.3-1.48q8.94-3,17.88-6a1.32,1.32,0,0,1,1.13.13,1.27,1.27,0,0,1,.14,1.06q-2.67,7.85-5.4,15.67c-.42,1.21-.86,1.36-1.83.62C19,24.19,16.36,22,15,20.82Z"/><path class="cls-3" d="M16,24.44c-1.06.9-2,1.7-3,2.56V21.71c1.05.95,2,1.8,3,2.73Z"/></svg>