<svg id="图层_1" data-name="图层 1" xmlns="http://www.w3.org/2000/svg" xmlns:xlink="http://www.w3.org/1999/xlink" viewBox="0 0 16 16"><defs><style>.cls-1{fill:url(#未命名的渐变_35);}.cls-2{fill:url(#未命名的渐变_63);}.cls-3{fill:url(#未命名的渐变_69);}</style><linearGradient id="未命名的渐变_35" x1="6.6" y1="13.12" x2="6.6" y2="13.12" gradientUnits="userSpaceOnUse"><stop offset="0.2" stop-color="#de5050"/><stop offset="0.81" stop-color="#f47171"/></linearGradient><linearGradient id="未命名的渐变_63" x1="6.18" y1="2.08" x2="16.42" y2="11.63" gradientUnits="userSpaceOnUse"><stop offset="0.01" stop-color="#de5050"/><stop offset="0.98" stop-color="#f47171"/></linearGradient><linearGradient id="未命名的渐变_69" x1="0.01" y1="9.23" x2="6.77" y2="15.62" gradientUnits="userSpaceOnUse"><stop offset="0" stop-color="#de5050"/><stop offset="1" stop-color="#f47171"/></linearGradient></defs><polygon class="cls-1" points="6.6 13.12 6.6 13.12 6.6 13.12 6.6 13.12"/><path class="cls-2" d="M14.86,1.15a.89.89,0,0,0-.79-.1Q7.8,3.26,1.56,5.48c-.66.23-.74.57-.21,1.09s1.3,1.16,1.91,1.79v0a.67.67,0,0,0,1,.09C6.12,7.23,8,6,9.82,4.83l.52-.29.06.09C8.71,6.07,7.46,7.74,5.85,9.26a.81.81,0,0,0,0,1.19c1,.87,2.8,2.48,4,3.48.68.55,1,.44,1.28-.45C12.46,9.63,13.71,5.78,15,1.93A1,1,0,0,0,14.86,1.15Z"/><path class="cls-3" d="M4,15l2-1.93c-.67-.71-1.3-1.35-2-2.07Z"/></svg>