<svg id="图层_1" data-name="图层 1" xmlns="http://www.w3.org/2000/svg" xmlns:xlink="http://www.w3.org/1999/xlink" viewBox="0 0 36 36"><defs><style>.cls-1{fill:#fff;}.cls-2{fill:url(#未命名的渐变_25);}.cls-3{fill:url(#未命名的渐变_26);}</style><linearGradient id="未命名的渐变_25" x1="9.7" y1="10.64" x2="26.24" y2="27.18" gradientUnits="userSpaceOnUse"><stop offset="0" stop-color="#045dff"/><stop offset="1" stop-color="#4184ff"/></linearGradient><linearGradient id="未命名的渐变_26" x1="15.68" y1="7.68" x2="29.42" y2="21.42" gradientUnits="userSpaceOnUse"><stop offset="0" stop-color="#045dff"/><stop offset="1" stop-color="#4184ff"/></linearGradient></defs><rect class="cls-1" width="36" height="36" rx="6"/><path class="cls-2" d="M24,10H23v1a1,1,0,0,1-1,1H14a1,1,0,0,1-1-1V10H12a3,3,0,0,0-3,3V25a3,3,0,0,0,3,3H24a3,3,0,0,0,3-3V13A2.8,2.8,0,0,0,24,10ZM13,16h4a1,1,0,0,1,0,2H13a1,1,0,0,1,0-2Zm10,6H13a1,1,0,0,1,0-2H23a1,1,0,0,1,0,2Z"/><path class="cls-3" d="M15,11h6a1,1,0,0,0,0-2H20a1,1,0,0,0-1-1H17a1,1,0,0,0-1,1H15a1,1,0,0,0,0,2Z"/></svg>