<svg id="图层_1" data-name="图层 1" xmlns="http://www.w3.org/2000/svg" xmlns:xlink="http://www.w3.org/1999/xlink" viewBox="0 0 16 16"><defs><style>.cls-1{fill:url(#未命名的渐变_25);}.cls-2{fill:url(#未命名的渐变_59);}</style><linearGradient id="未命名的渐变_25" x1="6.5" y1="0.5" x2="13.83" y2="7.83" gradientUnits="userSpaceOnUse"><stop offset="0" stop-color="#045dff"/><stop offset="1" stop-color="#4184ff"/></linearGradient><linearGradient id="未命名的渐变_59" x1="2.6" y1="2.96" x2="13.34" y2="13.98" xlink:href="#未命名的渐变_25"/></defs><path class="cls-1" d="M6,3h4a1,1,0,0,0,0-2H6A1,1,0,0,0,6,3Z"/><path class="cls-2" d="M12,2V3a1,1,0,0,1-1,1H5A1,1,0,0,1,4,3V2A2,2,0,0,0,2,4v9a2,2,0,0,0,2,2h8a2,2,0,0,0,2-2V4A2,2,0,0,0,12,2ZM4,7H9V8H4Zm8,4H4V10h8Z"/></svg>