<svg id="图层_1" data-name="图层 1" xmlns="http://www.w3.org/2000/svg" xmlns:xlink="http://www.w3.org/1999/xlink" viewBox="0 0 24 24"><defs><style>.cls-1{fill:url(#未命名的渐变_22);}.cls-2{fill:#fff;}</style><linearGradient id="未命名的渐变_22" x1="20.48" y1="21.98" x2="2.81" y2="4.31" gradientUnits="userSpaceOnUse"><stop offset="0.02" stop-color="#0078ef"/><stop offset="1" stop-color="#2b99ff"/></linearGradient></defs><path class="cls-1" d="M3.6,3A1.65,1.65,0,0,0,2,4.69V19.31A1.65,1.65,0,0,0,3.6,21H21.4A1.65,1.65,0,0,0,23,19.31V8.69A1.65,1.65,0,0,0,21.4,7H13.83a1,1,0,0,1-.71-.29L9.71,3.29A1,1,0,0,0,9,3Z"/><rect class="cls-2" x="6" y="10" width="9" height="2" rx="1"/><rect class="cls-2" x="6" y="15" width="13" height="2" rx="1"/></svg>