<svg id="图层_1" data-name="图层 1" xmlns="http://www.w3.org/2000/svg" xmlns:xlink="http://www.w3.org/1999/xlink" viewBox="0 0 128 128"><defs><style>.cls-1{fill:#eff0f9;}.cls-1,.cls-10,.cls-11,.cls-15,.cls-17,.cls-9{fill-opacity:0.6;}.cls-1,.cls-10,.cls-11,.cls-12,.cls-13,.cls-14,.cls-15,.cls-16,.cls-17,.cls-2,.cls-6,.cls-7,.cls-9{fill-rule:evenodd;}.cls-2{fill:#dfe2f2;fill-opacity:0.4;}.cls-3{fill:none;stroke:#d1d1d1;stroke-miterlimit:10;}.cls-4{fill:#fff;}.cls-5{fill:#a2a6ab;}.cls-6{fill:#e8f0fe;}.cls-7{fill:#e5efff;fill-opacity:0.8;}.cls-8{fill:#a1a1a1;}.cls-9{fill:#327aee;}.cls-10{fill:#9dc1fb;}.cls-11,.cls-13{fill:#4e8ef3;}.cls-12{fill:#0475ff;}.cls-14{fill:url(#未命名的渐变_2);}.cls-15,.cls-16,.cls-18{fill:#ffb018;}.cls-16{fill-opacity:0.3;}.cls-17{fill:#5c98f8;}.cls-18{opacity:0.3;}</style><linearGradient id="未命名的渐变_2" x1="81.94" y1="-538.99" x2="81.94" y2="-523.98" gradientTransform="matrix(1, 0, 0, -1, 0, -416)" gradientUnits="userSpaceOnUse"><stop offset="0" stop-color="#0475ff"/><stop offset="0" stop-color="#0475ff" stop-opacity="0.4"/><stop offset="1" stop-color="#0475ff"/></linearGradient></defs><path id="形状_43" data-name="形状 43" class="cls-1" d="M90.83,28.38C79,32,71.3,44.4,39.48,33c-9.61-3.44-26.74.86-33.66,14.93,0,0-19.2,34.08,12.14,57.63,13.22,9.94,45.83,4.15,69.53-.92,24.21-5.89,35.59-26.34,38.82-33.92S132.49,14.85,90.83,28.38Z"/><path id="椭圆_6" data-name="椭圆 6" class="cls-2" d="M81,117c22.64,0,41,2.46,41,5.5S103.64,128,81,128s-41-2.46-41-5.5S58.35,117,81,117Z"/><path class="cls-3" d="M46,77s-8.85-2.61-13.07-10.1,1-8.93,3.13-7.77c2.51,1.33,3,5.72-4.7,7.49S10,58.62,11.77,41"/><path class="cls-4" d="M56,43h45.08A14.92,14.92,0,0,1,116,57.92V82a0,0,0,0,1,0,0H56a0,0,0,0,1,0,0V43A0,0,0,0,1,56,43Z"/><path class="cls-5" d="M101.08,44A13.94,13.94,0,0,1,115,57.92V81H57V44h44.08m0-1H56V82h60V57.92A14.92,14.92,0,0,0,101.08,43Z"/><path id="形状_25" data-name="形状 25" class="cls-6" d="M56,43c-8.14,0-15,5.84-15,14V81H71V59c0-8.15-6.86-16-15-16"/><path class="cls-5" d="M56,44A15,15,0,0,1,71,59V81H41V59A15,15,0,0,1,56,44m0-1A16,16,0,0,0,40,59V82H72V59A16,16,0,0,0,56,43Z"/><path id="形状_26" data-name="形状 26" class="cls-7" d="M40.52,81.49l-3.33,8.62a13.31,13.31,0,1,0,24.07,11.37l9.74-20Z"/><path class="cls-8" d="M49.2,109.6A13.8,13.8,0,0,1,36.74,89.9L40.18,81,71.8,81,61.71,101.7A13.83,13.83,0,0,1,49.2,109.6ZM40.86,82l-3.2,8.3a12.81,12.81,0,1,0,23.14,11L70.2,82Z"/><path id="形状_28" data-name="形状 28" class="cls-9" d="M89.88,65H79a1.53,1.53,0,0,1-1.56-1.51h0A1.53,1.53,0,0,1,79,62H89.88a1.54,1.54,0,0,1,1.57,1.5h0A1.54,1.54,0,0,1,89.88,65Z"/><path id="形状_28_拷贝" data-name="形状 28 拷贝" class="cls-10" d="M85.43,72h-7a1.33,1.33,0,0,1-1-1.51h0a1.33,1.33,0,0,1,1-1.5h7a1.33,1.33,0,0,1,1,1.5h0A1.33,1.33,0,0,1,85.43,72Z"/><path id="形状_30" data-name="形状 30" class="cls-11" d="M101.49,58A4.5,4.5,0,1,1,106,53.5a4.5,4.5,0,0,1-4.51,4.5"/><path id="形状_32" data-name="形状 32" class="cls-12" d="M102,39l12-6.59L102,26V39Z"/><rect class="cls-4" x="77" y="81" width="8" height="37"/><polygon class="cls-5" points="84 115 85 115 85 81 77 81 77 117 78 117 78 82 84 82 84 115"/><path id="形状_31" data-name="形状 31" class="cls-13" d="M101.49,53a1.54,1.54,0,0,1-1.5-1.56V26.55a1.51,1.51,0,0,1,3,0V51.44A1.53,1.53,0,0,1,101.5,53h0"/><path id="形状_38" data-name="形状 38" class="cls-14" d="M64.19,123H98.37a.41.41,0,0,0,.37-.45h0c0-1.75,0-8.19,1.69-10.62,0-.06,0-.16-.08-.13-.82.33-3.25,1.48-3.85,3.52a.08.08,0,0,1-.08.06.07.07,0,0,1-.06-.07l-1-4.09a.07.07,0,0,0-.07-.07.08.08,0,0,0-.07,0l-1,2.52a.08.08,0,0,1-.09,0l0,0-2-3.35a.08.08,0,0,0-.09,0,.08.08,0,0,0,0,.07L91,115.86a.09.09,0,0,1-.08.08.08.08,0,0,1-.07-.08h0L89.19,108s0-.07-.08-.06A.07.07,0,0,0,89,108L87.63,114s0,.07-.08.06a.06.06,0,0,1-.06-.05l-1.64-4.27a.07.07,0,0,0-.09,0,.1.1,0,0,0-.05.06l-1.31,5.11a.07.07,0,0,1-.14,0l-.78-3.75a.07.07,0,0,0-.07-.07.08.08,0,0,0-.07,0l-2.14,6a.07.07,0,0,1-.09,0s0,0,0,0l-2.86-7.88a.09.09,0,0,0-.1,0,.11.11,0,0,0,0,.09c.11,1.52.27,5.7-1.07,7.61a.06.06,0,0,1-.09,0,.1.1,0,0,1,0,0l-1.4-4.54a.09.09,0,0,0-.09-.06.11.11,0,0,0-.06.07L74.13,117s0,.06-.08.06,0,0-.06,0c-.42-.87-2.17-4.78-1.3-8.28,0,0-2.28,3.5-2.36,6.07a.06.06,0,0,1-.06.08.07.07,0,0,1-.08,0l-1-2.92a.08.08,0,0,0-.09-.06.06.06,0,0,0-.05.06L68,116.73a.08.08,0,0,1-.09.06.09.09,0,0,1-.06-.08,11.41,11.41,0,0,0-4.24-7.81.08.08,0,0,0-.11,0,.06.06,0,0,0,0,.07,30.39,30.39,0,0,1,.38,13.45.44.44,0,0,0,.3.53Z"/><path id="形状_37" data-name="形状 37" class="cls-12" d="M99.42,123.65A.36.36,0,0,1,99,124H63.8a.35.35,0,0,1-.39-.31.31.31,0,0,1,0-.1c.15-.55.27-1.1.37-1.66H99.4C99.4,122.37,99.41,123,99.42,123.65Zm-29.2-3.84a.57.57,0,0,1-.17,1.13.57.57,0,0,1-.49-.57.61.61,0,0,1,.66-.56Zm1.86,1.58a.58.58,0,0,1,.48.66.58.58,0,0,1-1.15-.09.64.64,0,0,1,.66-.57ZM94.21,119a.57.57,0,0,1,.48.65.58.58,0,0,1-.65.49.59.59,0,0,1-.49-.57.62.62,0,0,1,.66-.57Z"/><path id="形状_40" data-name="形状 40" class="cls-15" d="M54.5,20a6.5,6.5,0,1,0-6.5-6.5A6.5,6.5,0,0,0,54.5,20Zm0-10A3.5,3.5,0,1,1,51,13.5,3.51,3.51,0,0,1,54.51,10Z"/><polygon class="cls-16" points="44.62 5.83 46.83 3.62 49.05 5.83 46.83 8.04 44.62 5.83"/><polygon class="cls-16" points="44.62 21.29 46.84 19.09 49.05 21.29 46.84 23.5 44.62 21.29"/><polygon class="cls-16" points="60.14 21.29 62.35 19.08 64.57 21.29 62.35 23.5 60.14 21.29"/><polygon class="cls-16" points="60.14 5.83 62.35 3.62 64.57 5.83 62.35 8.04 60.14 5.83"/><path id="形状_34" data-name="形状 34" class="cls-12" d="M13.71,35.41,1,26,11.12,36.37,3.61,39.65,1,26l19,7.31Z"/><path id="形状_35" data-name="形状 35" class="cls-17" d="M11.13,36.37l.6,4.63,2-5.59L1,26Z"/><path id="形状_36" data-name="形状 36" class="cls-13" d="M11.13,36.37,11.77,41,8.15,37.65Z"/><rect class="cls-18" x="64" y="12" width="3" height="3"/><rect class="cls-18" x="42" y="12" width="3" height="3"/><rect class="cls-18" x="53" y="1" width="3" height="3"/><rect class="cls-18" x="53" y="23" width="3" height="3"/></svg>