<svg id="图层_1" data-name="图层 1" xmlns="http://www.w3.org/2000/svg" viewBox="0 0 140 140"><defs><style>.cls-1,.cls-5{fill:#eff0f9;}.cls-1,.cls-2,.cls-4,.cls-8{fill-rule:evenodd;}.cls-2,.cls-7{fill:#fff;}.cls-3{fill:#8c8c8c;}.cls-4{fill:#f2f2f2;fill-opacity:0.68;}.cls-6,.cls-8{fill:#0475ff;}.cls-9{fill:#afafaf;}</style></defs><path id="椭圆形备份" class="cls-1" d="M87.83,132C116.64,132,140,105.76,140,73.4S110.74,53,81.93,53,0,45.72,0,78.09,59,132,87.83,132Z"/><path id="矩形备份-2" class="cls-2" d="M45.4,40.64l61.2,4.64A3.68,3.68,0,0,1,110,49h0v65.19a10.26,10.26,0,0,1-10.27,10.27,10.75,10.75,0,0,1-1.8-.15h0L42,114.3Z"/><path class="cls-3" d="M99.74,124.85a10.76,10.76,0,0,1-1.88-.16l-56.28-10L45,40.19l.43,0,61.19,4.65a4.11,4.11,0,0,1,3.8,4.1v65.19a10.69,10.69,0,0,1-10.69,10.69ZM42.44,114,98,123.87a10,10,0,0,0,1.73.15,9.85,9.85,0,0,0,9.85-9.86V49a3.29,3.29,0,0,0-.87-2.23,3.24,3.24,0,0,0-2.16-1L45.8,41.08Z"/><path id="矩形备份-22" class="cls-4" d="M56.17,119.11l38.18,1.82h.77l.75,0,.73-.08.72-.13.7-.17.86-.28.82-.34.79-.4.76-.46.72-.52.68-.57.62-.61.59-.67.53-.71.47-.75.42-.79.36-.83.24-.68.2-.7.15-.72.11-.74.06-.77v-.85l0-.84L100.2,46.61h0L57.37,49Z"/><path id="矩形" class="cls-2" d="M99.79,101.66v1.65a10.72,10.72,0,0,1-12.57,10.53l-56.28-10h0l1.51-65.6a6.67,6.67,0,0,1,6.82-6.51h.12l58.34,2.42a3.35,3.35,0,0,1,3.2,3.35l-.21,36.29h0"/><path class="cls-3" d="M89.1,114.42a11.58,11.58,0,0,1-1.95-.17l-56.63-10.1,1.51-66a7.1,7.1,0,0,1,7.25-6.92h.12L97.75,33.7a3.72,3.72,0,0,1,3.59,3.76l-.2,36.29h-.83l.2-36.28a2.91,2.91,0,0,0-2.79-2.93L39.37,32.11h-.11a6.26,6.26,0,0,0-6.39,6.1l-1.51,65.24,55.94,10a10.75,10.75,0,0,0,1.8.15,10.28,10.28,0,0,0,10.27-10.27v-1.65h.84v1.65A11.12,11.12,0,0,1,89.1,114.42Z"/><path class="cls-3" d="M83.09,53.41h-.67L41,51.2l.12-1.09.12-.62.19-.61.24-.59.3-.57.36-.53.4-.49.46-.46.5-.41.52-.35.56-.3.58-.24.61-.18.61-.12.61-.06h.64l41.4,2.22-.11,1.11-.14.64-.19.61-.24.59-.31.56-.35.52-.39.48-.44.44-.48.4-.52.35-.54.29-.58.25-.6.19-.62.12Zm-.64-.83H83l.56-.06.54-.11.52-.16.5-.22.48-.26.44-.3.42-.35.38-.39.34-.42.31-.45.26-.49.22-.51.16-.54.12-.56v-.18L47.79,45.42h-.57l-.55.06-.53.1-.53.16-.5.21-.48.26-.46.31-.44.36-.39.4L43,47.7l-.31.46-.26.5-.21.52-.16.53-.11.55,0,.15Z"/><path id="路径备份-2" class="cls-5" d="M47,60.86l41,2.19-.07.63-.12.6-.18.58-.23.55-.28.52-.33.49-.37.45-.41.42-.45.37L85,68l-.51.28L84,68.5l-.56.18-.58.11-.6.06h-.63l-41-2.2.07-.61.11-.59.18-.57.22-.55.28-.53.33-.5.38-.46.42-.43L43.1,62l.49-.33.52-.28.54-.22.57-.18.58-.11.58-.06Z"/><path id="路径备份-3" class="cls-5" d="M45.35,74.63l41,2.19-.07.63-.12.61-.18.57-.23.55-.28.52-.32.49-.37.45-.41.42-.45.37-.48.33-.51.28-.54.23-.56.18-.58.12-.6.06H80l-41-2.2.06-.61.12-.58.17-.58.23-.55.28-.53.32-.49.38-.47.43-.43.46-.39.5-.33.51-.28L43,75l.56-.18.58-.11.58-.05Z"/><path id="形状结合" class="cls-2" d="M65.2,25.47c2.58,0,4.67,1.66,4.67,3.71a2.69,2.69,0,0,1-.06.57l8.82.3a3.74,3.74,0,0,1,3.7,3.78v.11a3.76,3.76,0,0,1-4,3.53h0l-26.28-.89a3.73,3.73,0,0,1-3.7-3.78v-.11a3.78,3.78,0,0,1,4-3.54h0l8.18.28c0-.08,0-.16,0-.25C60.52,27.13,62.62,25.47,65.2,25.47Z"/><path class="cls-6" d="M78.49,38h-.15l-26.29-.89a4.25,4.25,0,0,1-4.2-4.3v-.11a4,4,0,0,1,1.39-2.9,4.42,4.42,0,0,1,3.12-1.11l7.66.26c.16-2.2,2.42-4,5.18-4s5.19,1.89,5.19,4.21a.28.28,0,0,1,0,.09l8.26.28a4.26,4.26,0,0,1,4.21,4.3V34a4,4,0,0,1-1.38,2.89A4.4,4.4,0,0,1,78.49,38Z"/><path class="cls-6" d="M52.21,29.65a3.44,3.44,0,0,0-2.27.85,3.11,3.11,0,0,0-1,2.2v.11a3.24,3.24,0,0,0,3.2,3.28L78.37,37a3.37,3.37,0,0,0,2.38-.85,3.08,3.08,0,0,0,1-2.21v-.11a3.24,3.24,0,0,0-3.2-3.27l-9.41-.32.1-.56a2.52,2.52,0,0,0,0-.48c0-1.77-1.86-3.22-4.15-3.22S61,27.41,61,29.18c0,.08,0,.15,0,.22l0,.55-8.76-.3Z"/><path id="路径备份" class="cls-7" d="M87.14,112.85l-60.72-3.52-.8-.07-.78-.14-.75-.19-.72-.25-.7-.31L22,108l-.64-.41-.59-.45-.57-.5-.52-.53-.47-.58-.44-.61-.38-.64-.34-.67-.28-.7-.24-.73-.17-.75-.11-.76-.06-.78v-.81l.06-.7.18-1.11.21-1,.24-.86.27-.74.3-.65.33-.56.35-.47.37-.41.39-.34.41-.28.44-.23.47-.17.51-.11.54-.06h.59l60.71,3.51H83l-.54.06-.51.12-.46.17L81,95.5l-.41.28-.39.34-.37.41-.35.48-.32.55-.3.65-.28.75-.24.85-.21,1L78,101.9h0l-.07.81v.78l.06.77.12.76.18.74.23.72.28.69.34.67.39.65.44.6.48.57.52.54.57.49.6.45.64.41.67.36.7.3.73.25.77.19.8.14Z"/><path class="cls-3" d="M87.11,113.26l-60.72-3.51-.85-.08-.8-.15-.78-.2-.76-.26-.73-.33-.69-.37-.66-.42-.62-.48-.58-.52-.55-.56-.49-.59-.45-.64-.41-.68-.35-.7-.29-.72-.24-.77-.18-.77-.12-.8-.05-.8v-.86l.06-.73L17,97.19l.21-1,.26-.88.29-.78.31-.68.35-.59.38-.51.4-.44.43-.38.46-.3.49-.25.52-.18.55-.12.57-.07h.63L83.6,94.52l0,.83H83l-.49.05-.46.11-.42.15-.39.2-.38.25-.35.31-.34.37-.32.44-.3.53-.29.61-.26.71-.24.83-.2,1L78.4,102l-.06.78v.75l.06.73.11.73.18.71.22.69.27.66.33.64.37.62.42.58.46.54.5.52.54.47.57.43.61.39.65.34.67.29.7.24.73.18.77.13.68.06Zm-60.66-4.34L83.1,112.2l-.56-.3-.66-.42-.63-.47-.59-.52-.54-.56-.5-.59-.45-.64-.41-.67-.35-.7-.3-.72-.24-.75-.19-.78-.12-.78-.06-.79v-.84l.07-.83.17-1.14.22-1,.25-.89.29-.78.32-.68.34-.59.38-.51.4-.44.44-.37.36-.25-57.9-3.35H22.3l-.49,0-.46.1-.42.16-.4.2-.37.25-.35.31-.34.37-.32.44-.31.52-.28.62-.26.71-.24.83-.2.95-.17,1.09-.06.67v.77l.05.76.11.73.17.71.22.7.27.67.32.64.37.61.42.59.45.55.5.51.54.48.57.43.61.39.63.34.68.3.69.24.71.18.74.13Z"/><path id="路径" class="cls-6" d="M101.14,124.53,35.42,121l-.8-.08-.78-.13-.74-.2-.73-.25-.7-.31-.66-.36-.63-.4-.6-.45-.57-.5-.51-.54-.48-.57-.44-.61L27.4,116l-.34-.67-.28-.7-.23-.73-.18-.74-.11-.76-.06-.79v-.81l.07-.7.17-1.11.21-1,.24-.85.28-.75.3-.64.32-.56.35-.48.37-.41.39-.34.41-.28.44-.22.47-.17.51-.12.54-.06h.59l65.71,3.51H97l-.54.06-.5.11-.47.17-.44.23-.42.28-.39.34-.37.4-.35.48-.32.56-.3.65-.28.74-.24.86-.21,1L92,113.58h0l-.07.81v.79L92,116l.12.75.18.75.23.72.28.69.34.67.39.64.44.61.48.57.52.54.57.49.6.45.64.4.67.36.71.3.73.25.76.19.8.14Z"/><path class="cls-3" d="M101.11,125l-65.72-3.52h0l-.84-.08-.8-.14L33,121l-.75-.26-.74-.32-.69-.38-.66-.42-.62-.47-.58-.52-.54-.56-.5-.6-.45-.64-.41-.67-.34-.7-.3-.73-.24-.76-.18-.78-.12-.8-.05-.8v-.86l.06-.72.18-1.14.22-1,.25-.89.29-.77.32-.68.34-.6.38-.51.4-.44.43-.37.46-.31.49-.24.52-.19.55-.12.57-.06h.63L97.6,106.2l0,.83H97l-.49.06-.46.1-.42.15-.39.2-.37.26-.36.3-.34.38-.32.44-.3.52-.29.62-.26.71-.24.83-.2,1-.17,1.08-.06.78v.75l0,.74.11.72.18.71.22.69.27.66.33.65.37.61.42.58.46.55.5.51.54.48.57.43.61.38.65.35.68.29.69.23.73.19.77.13.68.06ZM35.45,120.6l61.69,3.3-.6-.32-.66-.42-.63-.47-.58-.51-.55-.56-.5-.6-.45-.63-.41-.67-.35-.7-.3-.73-.24-.74-.19-.78-.12-.79-.06-.79v-.83l.07-.84.17-1.13.22-1,.25-.88.29-.78.32-.68.35-.59.37-.52.41-.44.43-.37.35-.24-62.89-3.36H31.3l-.49.06-.46.1-.42.15-.4.2-.37.25-.35.31-.34.37-.32.45-.3.52-.29.61-.26.72-.24.82-.2,1-.17,1.08-.06.67v.78l.05.75.11.73.17.71.22.7.27.67.32.64.37.62.42.58.46.55.49.52.54.47.57.44.61.38.63.35.68.29.69.24.71.19.74.13Z"/><path id="椭圆形" class="cls-2" d="M111,87.28a10,10,0,1,1-10-10.2A10.1,10.1,0,0,1,111,87.28Z"/><path id="形状" class="cls-6" d="M112.4,95.85l.58.59.22.22,0,0,0,0,.21.22.59.6.28.33.23.33.17.34.13.35.08.37,0,.36V100l-.06.35-.11.35-.15.33-.21.32-.26.31-.3.27-.32.21-.32.16-.34.11-.35.07h-.36l-.35,0-.37-.08-.34-.14-.34-.18-.33-.23-.33-.3-.75-.77-.39-.4-.21-.21-.2-.21-.38-.4-.76-.78-.18-.16-.16,0h-.16l-.22.1L106,99l-.73.32-.73.27-.73.22-.74.17-.75.12-.74.08-.73,0-.73,0-.72-.06-.9-.15-.88-.21-.85-.28-.84-.35-.8-.41-.77-.47-.74-.52-.7-.6-.65-.64-.61-.69-.56-.76-.52-.81-.36-.67-.32-.7-.29-.74-.25-.78-.2-.81L89,89.72l-.1-.82,0-.81,0-.81.07-.81.13-.78.18-.78.22-.76.28-.74.32-.72.37-.7.41-.67.45-.65.49-.62.53-.58.57-.55.6-.51.64-.48.67-.43.71-.39.73-.34.75-.29.79-.25.82-.19.86-.14.84-.07h.83l.83.05.82.11.79.17.78.22.77.27.74.33.72.37.68.42.67.46.63.51.59.55.56.59.52.63.48.67.44.69.38.74.35.76.29.79.23.81.18.85.12.87.06.89v.86l-.06.85-.11.83-.16.81-.23.81-.28.79-.34.79-.4.78-.13.23v.06l0,.14.66.64Zm-11.59.62.69,0,.67-.09.65-.13.63-.19.62-.24.58-.28.56-.32.53-.37.5-.41.47-.44.43-.47.39-.51.36-.54.31-.57.27-.59.23-.63.18-.63.13-.66.08-.68,0-.7,0-.7-.08-.68-.14-.66-.18-.63-.24-.63-.28-.59-.32-.56-.36-.54-.4-.51-.44-.47-.47-.44-.51-.4-.53-.37-.56-.31-.59-.28-.61-.23-.63-.18-.65-.13-.67-.08-.69,0-.68,0-.66.09-.64.14-.62.19-.6.24-.57.29-.55.33-.53.37-.49.41-.46.44-.42.48-.4.52-.35.55-.31.57-.26.6-.23.63-.18.64-.12.66-.08.68,0,.7,0,.69.08.66.14.64.19.63.23.61.28.59.32.56.36.53.4.51L95,94l.47.44.5.4.53.36.55.32.57.28.6.23.62.18.63.13.65.08Z"/><path id="路径-2" data-name="路径" class="cls-6" d="M94.45,88.51l0-.6.08-.57.11-.54.16-.52.2-.51.24-.49.27-.45.3-.43.45-.53.49-.47L97.3,83l.57-.36.59-.3.61-.22.47-.13.47-.09.48,0H101l0,.46v1.38l-.57.07-.52.12-.48.15L99,84.2l-.42.23-.38.26-.34.28-.31.31-.36.46-.3.49-.24.54-.18.55-.12.58-.07.61Z"/><path id="路径-4备份-3" class="cls-8" d="M10.81,36.25l6.93-7.36-3-8.28,5,6.15,5.42-7.54L9.46,8.07Z"/><path class="cls-9" d="M18.85,37.68v-.32h.93v.28l0,.56.09.56.16.55.2.54.24.54.29.53.27.42-.78.5-.3-.47-.32-.59-.27-.59-.22-.61L19,38.94l-.11-.64Zm.44-4.88.19-1.25.33-1.69.36-1.53.9.21-.36,1.52-.31,1.65-.19,1.23ZM23.5,45.2l.58-.72.09.06.73.52.76.48.77.43.78.38.68.29-.36.86-.72-.31-.82-.4-.82-.46-.8-.5-.77-.55Zm1.13-3.63V40.9l0-.19.92.1v.72l.05.59.1.61.16.63.28.84.31.76-.85.35-.34-.8-.3-.9-.17-.71-.12-.68Zm2.32-5,.44-.33.54-.32.59-.27.64-.2.66-.14.67-.08.68,0h.31l0,.93h-.28l-.62,0-.6.07-.57.13-.55.17-.49.22L27.9,37l-.38.29Zm1,12.73.74-.56.83,1.11,1,1.25,1,1.11-.69.61-1-1.13L28.8,50.4Zm4.12-1.85h0l.44-.06.4-.09.36-.13.34-.17.29-.2.25-.24.23-.29.72-1.13.79.5-.76,1.19-.32.39-.36.33-.4.27-.45.22-.45.16-.49.11-.53.07h-.06ZM34,56.06l.65-.67,0,0,.94.87.77.7,1.19,1,.44.36-.59.71L37,58.71l-1.2-1L35,57Zm1.33-18.64.62-.69.28.26.31.33.27.39.22.4.15.43.1.43.19,1.22.06.6v.4h-.93v-.38l-.06-.53-.18-1.16-.08-.35-.11-.32L36,38.17l-.2-.28-.24-.26Z"/></svg>