<svg id="图层_1" data-name="图层 1" xmlns="http://www.w3.org/2000/svg" xmlns:xlink="http://www.w3.org/1999/xlink" viewBox="0 0 28 28"><defs><style>.cls-1{fill:#e7fbf6;fill-rule:evenodd;}.cls-2{fill:url(#未命名的渐变_53);}</style><linearGradient id="未命名的渐变_53" x1="5.48" y1="14" x2="27.67" y2="14" gradientUnits="userSpaceOnUse"><stop offset="0.02" stop-color="#20c63f"/><stop offset="0.36" stop-color="#25d973"/><stop offset="0.63" stop-color="#6ef0a6"/><stop offset="0.8" stop-color="#6ef0a6"/></linearGradient></defs><path class="cls-1" d="M4,0H24a4,4,0,0,1,4,4V24a4,4,0,0,1-4,4H4a4,4,0,0,1-4-4V4A4,4,0,0,1,4,0Z"/><path class="cls-2" d="M20,16h0V15a2,2,0,0,0-2-2H15V12h0a2,2,0,0,0,2-2V8a2,2,0,0,0-2-2H13a2,2,0,0,0-2,2v2a2,2,0,0,0,2,2h0v1H10a2,2,0,0,0-2,2v1H8a2,2,0,0,0-2,2v2a2,2,0,0,0,2,2h2a2,2,0,0,0,2-2V18a2,2,0,0,0-2-2h0V15h8v1h0a2,2,0,0,0-2,2v2a2,2,0,0,0,2,2h2a2,2,0,0,0,2-2V18A2,2,0,0,0,20,16Z"/></svg>