<svg id="图层_1" data-name="图层 1" xmlns="http://www.w3.org/2000/svg" xmlns:xlink="http://www.w3.org/1999/xlink" viewBox="0 0 40 40"><defs><style>.cls-1{fill:url(#未命名的渐变_2);}.cls-2{fill:url(#未命名的渐变_3);}.cls-3{fill:url(#未命名的渐变_5);}.cls-4{fill:url(#未命名的渐变_13);}.cls-5{fill:#fff;}.cls-6{fill:#ccc;}.cls-7{fill:url(#未命名的渐变_13-2);}</style><linearGradient id="未命名的渐变_2" x1="-52.59" y1="-306.86" x2="-52.59" y2="-307.15" gradientTransform="matrix(131.24, 0, 0, -164.76, 6925.72, -50563.02)" gradientUnits="userSpaceOnUse"><stop offset="0.19" stop-color="#dce1e5"/><stop offset="1" stop-color="#f6f9fc"/></linearGradient><linearGradient id="未命名的渐变_3" x1="-52.59" y1="-307.12" x2="-52.59" y2="-306.91" gradientTransform="matrix(131.24, 0, 0, -164.76, 6925.78, -50562.58)" gradientUnits="userSpaceOnUse"><stop offset="0.03" stop-color="#dce1e5"/><stop offset="1" stop-color="#f6f9fc"/></linearGradient><linearGradient id="未命名的渐变_5" x1="-52.6" y1="-307.08" x2="-52.6" y2="-307.32" gradientTransform="matrix(110, 0, 0, -144, 5810.13, -44221.15)" gradientUnits="userSpaceOnUse"><stop offset="0.2" stop-color="#dfe3e8"/><stop offset="1" stop-color="#f6f9fc"/></linearGradient><linearGradient id="未命名的渐变_13" x1="18.92" y1="25.11" x2="1.89" y2="24.87" gradientUnits="userSpaceOnUse"><stop offset="0.02" stop-color="#0078ef"/><stop offset="0.91" stop-color="#2b99ff"/></linearGradient><linearGradient id="未命名的渐变_13-2" x1="19.64" y1="19" x2="28.36" y2="19" xlink:href="#未命名的渐变_13"/></defs><path id="路径_20689" data-name="路径 20689" class="cls-1" d="M37,10.86,29.81,3.94A3.4,3.4,0,0,0,27.45,3H13.33A3.26,3.26,0,0,0,10,6.2V33.8A3.26,3.26,0,0,0,13.33,37H34.67A3.26,3.26,0,0,0,38,33.8V13.11A3.11,3.11,0,0,0,37,10.86Z"/><path id="路径_20687-2" data-name="路径 20687-2" class="cls-2" d="M14.11,4H27.16a3.2,3.2,0,0,1,2.2.88l6.73,6.54A3,3,0,0,1,37,13.55V33a3.07,3.07,0,0,1-3.11,3H14.11A3.07,3.07,0,0,1,11,33V7A3.07,3.07,0,0,1,14.11,4Z"/><path id="路径_20690" data-name="路径 20690" class="cls-3" d="M35,32a2,2,0,0,1-2.06,2H15.06A2,2,0,0,1,13,32V8a2,2,0,0,1,2.06-2H26.79a2.13,2.13,0,0,1,.79.15,2.19,2.19,0,0,1,.67.45l6.15,6.06a2.06,2.06,0,0,1,.44.66,2,2,0,0,1,.16.78Z"/><rect class="cls-4" x="3" y="17" width="16" height="16" rx="2"/><rect class="cls-5" x="6" y="20" width="4" height="4" rx="1"/><rect class="cls-5" x="6" y="26" width="4" height="4" rx="1"/><rect class="cls-5" x="11" y="20" width="5" height="1" rx="0.5"/><rect class="cls-5" x="11" y="23" width="3" height="1" rx="0.5"/><rect class="cls-5" x="11" y="26" width="5" height="1" rx="0.5"/><rect class="cls-5" x="11" y="29" width="3" height="1" rx="0.5"/><path class="cls-6" d="M28.56,14a3.44,3.44,0,0,1,1.15,2.75A3.7,3.7,0,0,1,29,19.12a21,21,0,0,1-1.62,1.5,2.93,2.93,0,0,0-.8,1,2.5,2.5,0,0,0-.31,1.26v.33H24.19v-.33a3.75,3.75,0,0,1,.39-1.82,9.61,9.61,0,0,1,2.17-2.39l.33-.36a2.27,2.27,0,0,0,.54-1.41,2,2,0,0,0-2.2-2.15,2.13,2.13,0,0,0-1.88.83,3.18,3.18,0,0,0-.52,2H21a4.46,4.46,0,0,1,1.21-3.31A4.49,4.49,0,0,1,25.56,13,4.33,4.33,0,0,1,28.56,14ZM26.23,24.64a1.25,1.25,0,0,1,.4,1,1.39,1.39,0,0,1-.42,1,1.45,1.45,0,0,1-1,.38,1.35,1.35,0,0,1-1-.4,1.34,1.34,0,0,1-.4-1,1.25,1.25,0,0,1,.4-1,1.35,1.35,0,0,1,1-.39A1.38,1.38,0,0,1,26.23,24.64Z"/><path class="cls-7" d="M27.2,13a3.45,3.45,0,0,1,1.16,2.75,3.71,3.71,0,0,1-.74,2.35A20,20,0,0,1,26,19.62a2.84,2.84,0,0,0-.81,1,2.61,2.61,0,0,0-.3,1.26v.33H22.84v-.33a3.87,3.87,0,0,1,.38-1.82,9.83,9.83,0,0,1,2.17-2.39l.33-.36a2.27,2.27,0,0,0,.54-1.41,2,2,0,0,0-2.19-2.15,2.16,2.16,0,0,0-1.89.83,3.24,3.24,0,0,0-.52,2h-2A4.23,4.23,0,0,1,24.2,12,4.3,4.3,0,0,1,27.2,13ZM24.87,23.64a1.25,1.25,0,0,1,.41,1,1.39,1.39,0,0,1-.42,1,1.49,1.49,0,0,1-1,.38,1.38,1.38,0,0,1-1.41-1.38,1.25,1.25,0,0,1,.41-1,1.49,1.49,0,0,1,2,0Z"/></svg>