<svg id="图层_1" data-name="图层 1" xmlns="http://www.w3.org/2000/svg" xmlns:xlink="http://www.w3.org/1999/xlink" viewBox="0 0 40 40"><defs><style>.cls-1{fill:url(#未命名的渐变_2);}.cls-2{fill:url(#未命名的渐变_3);}.cls-3{fill:url(#未命名的渐变_5);}.cls-4{fill:url(#未命名的渐变_6);}.cls-5{fill:url(#未命名的渐变_4);}.cls-6{fill:url(#未命名的渐变_6-2);}.cls-7{fill:url(#未命名的渐变_6-3);}.cls-8{fill:#fff;stroke:#fff;stroke-miterlimit:10;stroke-width:0.5px;}</style><linearGradient id="未命名的渐变_2" x1="162.74" y1="-306.86" x2="162.74" y2="-307.16" gradientTransform="matrix(131.24, 0, 0, -164.76, -21336.37, -50563.02)" gradientUnits="userSpaceOnUse"><stop offset="0.19" stop-color="#dce1e5"/><stop offset="1" stop-color="#f6f9fc"/></linearGradient><linearGradient id="未命名的渐变_3" x1="162.74" y1="-307.12" x2="162.74" y2="-306.92" gradientTransform="matrix(131.24, 0, 0, -164.76, -21336.53, -50562.58)" gradientUnits="userSpaceOnUse"><stop offset="0.03" stop-color="#dce1e5"/><stop offset="1" stop-color="#f6f9fc"/></linearGradient><linearGradient id="未命名的渐变_5" x1="162.41" y1="-307.09" x2="162.41" y2="-307.33" gradientTransform="matrix(110, 0, 0, -144, -17843.41, -44221.15)" gradientUnits="userSpaceOnUse"><stop offset="0.2" stop-color="#dfe3e8"/><stop offset="1" stop-color="#f6f9fc"/></linearGradient><linearGradient id="未命名的渐变_6" x1="13.45" y1="10" x2="21.76" y2="10" gradientUnits="userSpaceOnUse"><stop offset="0.02" stop-color="#f74882"/><stop offset="0.91" stop-color="#ff6c8c"/></linearGradient><linearGradient id="未命名的渐变_4" x1="22" y1="12.93" x2="22" y2="14.97" gradientUnits="userSpaceOnUse"><stop offset="0.03" stop-color="#dce1e5"/><stop offset="1" stop-color="#f6f9fc"/></linearGradient><linearGradient id="未命名的渐变_6-2" x1="13.14" y1="14" x2="26.19" y2="14" xlink:href="#未命名的渐变_6"/><linearGradient id="未命名的渐变_6-3" x1="19.92" y1="25.11" x2="2.89" y2="24.87" xlink:href="#未命名的渐变_6"/></defs><path id="路径_20689" data-name="路径 20689" class="cls-1" d="M35,11.86,27.81,4.94A3.4,3.4,0,0,0,25.45,4H11.33A3.26,3.26,0,0,0,8,7.2V34.8A3.26,3.26,0,0,0,11.33,38H32.67A3.26,3.26,0,0,0,36,34.8V14.11A3.11,3.11,0,0,0,35,11.86Z"/><path id="路径_20687-2" data-name="路径 20687-2" class="cls-2" d="M12.11,5H25.16a3.2,3.2,0,0,1,2.2.88l6.73,6.54A3,3,0,0,1,35,14.55V34a3.07,3.07,0,0,1-3.11,3H12.11A3.07,3.07,0,0,1,9,34V8A3.07,3.07,0,0,1,12.11,5Z"/><path id="路径_20690" data-name="路径 20690" class="cls-3" d="M33,33a2,2,0,0,1-2.06,2H13.06A2,2,0,0,1,11,33V9a2,2,0,0,1,2.06-2H24.79a2.13,2.13,0,0,1,.79.15,2.19,2.19,0,0,1,.67.45l6.15,6.06a2.06,2.06,0,0,1,.44.66,2,2,0,0,1,.16.78Z"/><rect class="cls-4" x="14" y="9" width="7" height="2" rx="1"/><rect class="cls-5" x="14" y="13" width="16" height="2" rx="1"/><rect class="cls-6" x="14" y="13" width="11" height="2" rx="1"/><rect class="cls-7" x="4" y="17" width="16" height="16" rx="2"/><path class="cls-8" d="M16.43,27.73a4.19,4.19,0,0,1-2.46-1A24.14,24.14,0,0,0,10,28c-1,1.84-2,2.77-2.83,2.77a.85.85,0,0,1-.5-.13,1,1,0,0,1-.57-.9c0-.3.07-1.14,3.23-2.51a23.88,23.88,0,0,0,1.77-4.14c-.4-.8-1.27-2.78-.67-3.78a1,1,0,0,1,1-.53,1.08,1.08,0,0,1,.86.43c.44.6.4,1.87-.16,3.74a10,10,0,0,0,2.06,2.68,10.73,10.73,0,0,1,2.1-.24c1.57,0,1.8.77,1.77,1.21C18.1,27.73,17,27.73,16.43,27.73ZM7.1,29.8l.1,0a2.17,2.17,0,0,0,1.1-.93A2.64,2.64,0,0,0,7.1,29.8Zm4.43-10h-.1a.21.21,0,0,0-.13,0,2.8,2.8,0,0,0,.2,1.71A2.8,2.8,0,0,0,11.53,19.78Zm.24,4.84-.07,0c-.3.77-.63,1.54-1,2.27l.07,0A19.27,19.27,0,0,1,13,26.3l.07,0A9.75,9.75,0,0,1,11.77,24.62ZM16.3,26.4a4.25,4.25,0,0,0-.87.06,2.72,2.72,0,0,0,1,.27,1.48,1.48,0,0,0,.67-.07C17.1,26.56,17,26.4,16.3,26.4Z"/></svg>