<svg id="图层_1" data-name="图层 1" xmlns="http://www.w3.org/2000/svg" xmlns:xlink="http://www.w3.org/1999/xlink" viewBox="0 0 28 28"><defs><style>.cls-1{fill:#fef1f1;fill-rule:evenodd;}.cls-2{fill:url(#未命名的渐变_41);}.cls-3{fill:url(#未命名的渐变_40);}</style><linearGradient id="未命名的渐变_41" x1="11.25" y1="11.75" x2="17.08" y2="5.92" gradientUnits="userSpaceOnUse"><stop offset="0" stop-color="#e0504f"/><stop offset="0.29" stop-color="#f45655"/><stop offset="0.72" stop-color="#fa9a9a"/><stop offset="0.98" stop-color="#ffb8b8"/></linearGradient><linearGradient id="未命名的渐变_40" x1="8.74" y1="23.89" x2="19.35" y2="13.28" gradientUnits="userSpaceOnUse"><stop offset="0.1" stop-color="#e0504f"/><stop offset="0.23" stop-color="#f45655"/><stop offset="0.79" stop-color="#fa9a9a"/><stop offset="1" stop-color="#ffb8b8"/></linearGradient></defs><path class="cls-1" d="M4,0H24a4,4,0,0,1,4,4V24a4,4,0,0,1-4,4H4a4,4,0,0,1-4-4V4A4,4,0,0,1,4,0Z"/><circle class="cls-2" cx="13.5" cy="9.5" r="3.5"/><path class="cls-3" d="M15.21,14H11.78A5.86,5.86,0,0,0,6,19.94v.35C6,22,8.55,22,11.78,22h3.44c3.1,0,5.78,0,5.78-1.71v-.35A5.87,5.87,0,0,0,15.21,14Z"/></svg>