<svg id="图层_1" data-name="图层 1" xmlns="http://www.w3.org/2000/svg" xmlns:xlink="http://www.w3.org/1999/xlink" viewBox="0 0 40 40"><defs><style>.cls-1{fill:url(#未命名的渐变_2);}.cls-2{fill:url(#未命名的渐变_3);}.cls-3{fill:url(#未命名的渐变_5);}.cls-4{fill:url(#未命名的渐变_24);}.cls-5{fill:url(#未命名的渐变_4);}.cls-6{fill:url(#未命名的渐变_24-2);}.cls-7{fill:url(#未命名的渐变_23);}.cls-8{fill:url(#未命名的渐变_23-2);}.cls-9{fill:#9b3fcb;opacity:0.8;}.cls-10,.cls-11{opacity:0.5;}.cls-10{fill:url(#未命名的渐变_23-3);}.cls-11{fill:#8334ab;}.cls-12{fill:#fff;}</style><linearGradient id="未命名的渐变_2" x1="-122.07" y1="-252.53" x2="-122.07" y2="-252.82" gradientTransform="matrix(131.24, 0, 0, -164.76, 16042.53, -41612.14)" gradientUnits="userSpaceOnUse"><stop offset="0.19" stop-color="#dce1e5"/><stop offset="1" stop-color="#f6f9fc"/></linearGradient><linearGradient id="未命名的渐变_3" x1="-122.07" y1="-252.79" x2="-122.07" y2="-252.59" gradientTransform="matrix(131.24, 0, 0, -164.76, 16042.65, -41611.76)" gradientUnits="userSpaceOnUse"><stop offset="0.03" stop-color="#dce1e5"/><stop offset="1" stop-color="#f6f9fc"/></linearGradient><linearGradient id="未命名的渐变_5" x1="-121.98" y1="-252.71" x2="-121.98" y2="-252.95" gradientTransform="matrix(110, 0, 0, -144, 13440.31, -36391.14)" gradientUnits="userSpaceOnUse"><stop offset="0.2" stop-color="#dfe3e8"/><stop offset="1" stop-color="#f6f9fc"/></linearGradient><linearGradient id="未命名的渐变_24" x1="13.45" y1="9" x2="21.76" y2="9" gradientUnits="userSpaceOnUse"><stop offset="0.08" stop-color="#ad34db"/><stop offset="0.9" stop-color="#d84be0"/></linearGradient><linearGradient id="未命名的渐变_4" x1="22" y1="11.93" x2="22" y2="13.97" gradientUnits="userSpaceOnUse"><stop offset="0.03" stop-color="#dce1e5"/><stop offset="1" stop-color="#f6f9fc"/></linearGradient><linearGradient id="未命名的渐变_24-2" x1="13.14" y1="13" x2="26.19" y2="13" xlink:href="#未命名的渐变_24"/><linearGradient id="未命名的渐变_23" x1="21.93" y1="24.12" x2="5.92" y2="23.89" gradientUnits="userSpaceOnUse"><stop offset="0" stop-color="#d84be0"/><stop offset="1" stop-color="#ad34db"/></linearGradient><linearGradient id="未命名的渐变_23-2" x1="5" y1="31.04" x2="5" y2="16.63" xlink:href="#未命名的渐变_23"/><linearGradient id="未命名的渐变_23-3" x1="5" y1="32" x2="5" y2="26.06" xlink:href="#未命名的渐变_23"/></defs><path id="路径_20689" data-name="路径 20689" class="cls-1" d="M35,10.86,27.81,3.94A3.4,3.4,0,0,0,25.45,3H11.33A3.26,3.26,0,0,0,8,6.2V33.8A3.26,3.26,0,0,0,11.33,37H32.67A3.26,3.26,0,0,0,36,33.8V13.11A3.11,3.11,0,0,0,35,10.86Z"/><path id="路径_20687-2" data-name="路径 20687-2" class="cls-2" d="M12.11,4H25.16a3.2,3.2,0,0,1,2.2.88l6.73,6.54A3,3,0,0,1,35,13.55V33a3.07,3.07,0,0,1-3.11,3H12.11A3.07,3.07,0,0,1,9,33V7A3.07,3.07,0,0,1,12.11,4Z"/><path id="路径_20690" data-name="路径 20690" class="cls-3" d="M33,32a2,2,0,0,1-2.06,2H13.06A2,2,0,0,1,11,32V8a2,2,0,0,1,2.06-2H24.79a2.13,2.13,0,0,1,.79.15,2.19,2.19,0,0,1,.67.45l6.15,6.06a2.06,2.06,0,0,1,.44.66,2,2,0,0,1,.16.78Z"/><rect class="cls-4" x="14" y="8" width="7" height="2" rx="1"/><rect class="cls-5" x="14" y="12" width="16" height="2" rx="1"/><rect class="cls-6" x="14" y="12" width="11" height="2" rx="1"/><path class="cls-7" d="M22,18V30a2,2,0,0,1-2,2H7V16H20A2,2,0,0,1,22,18Z"/><path class="cls-8" d="M6,16V32H6a2,2,0,0,1-2-2V18a2,2,0,0,1,2-2Z"/><path class="cls-9" d="M9,16l13,7V18a2,2,0,0,0-2-2Z"/><path class="cls-10" d="M6,26.06V32a2,2,0,0,1-2-2V27.19Z"/><path class="cls-11" d="M22,18V30a2,2,0,0,1-2,2H7V25.49l14.79-8.37A1.87,1.87,0,0,1,22,18Z"/><rect class="cls-12" x="9" y="23" width="1" height="7"/><polygon class="cls-12" points="10 26 13 30 14 30 11 26 10 26"/><path class="cls-12" d="M12,24a1,1,0,0,1,0,2H10V24h2m0-1H9v4h3a2,2,0,0,0,0-4Z"/><rect class="cls-12" x="15" y="23" width="1" height="7"/><path class="cls-12" d="M18,24a1,1,0,0,1,0,2H16V24h2m0-1H15v4h3a2,2,0,0,0,0-4Z"/></svg>