<svg id="图层_1" data-name="图层 1" xmlns="http://www.w3.org/2000/svg" xmlns:xlink="http://www.w3.org/1999/xlink" viewBox="0 0 40 40"><defs><style>.cls-1{fill:url(#未命名的渐变_2);}.cls-2{fill:url(#未命名的渐变_3);}.cls-3{fill:url(#未命名的渐变_5);}.cls-4{fill:#ccc;}.cls-5{fill:url(#未命名的渐变_13);}</style><linearGradient id="未命名的渐变_2" x1="16.85" y1="-306.86" x2="16.85" y2="-307.15" gradientTransform="matrix(131.24, 0, 0, -164.76, -2191.08, -50563.02)" gradientUnits="userSpaceOnUse"><stop offset="0.19" stop-color="#dce1e5"/><stop offset="1" stop-color="#f6f9fc"/></linearGradient><linearGradient id="未命名的渐变_3" x1="16.85" y1="-307.12" x2="16.85" y2="-306.91" gradientTransform="matrix(131.24, 0, 0, -164.76, -2191.1, -50562.58)" gradientUnits="userSpaceOnUse"><stop offset="0.03" stop-color="#dce1e5"/><stop offset="1" stop-color="#f6f9fc"/></linearGradient><linearGradient id="未命名的渐变_5" x1="16.73" y1="-307.08" x2="16.73" y2="-307.32" gradientTransform="matrix(110, 0, 0, -144, -1820.04, -44221.15)" gradientUnits="userSpaceOnUse"><stop offset="0.2" stop-color="#dfe3e8"/><stop offset="1" stop-color="#f6f9fc"/></linearGradient><linearGradient id="未命名的渐变_13" x1="12" y1="21" x2="27.98" y2="21" gradientUnits="userSpaceOnUse"><stop offset="0.02" stop-color="#0078ef"/><stop offset="0.91" stop-color="#2b99ff"/></linearGradient></defs><path id="路径_20689" data-name="路径 20689" class="cls-1" d="M33,10.86,25.81,3.94A3.4,3.4,0,0,0,23.45,3H9.33A3.26,3.26,0,0,0,6,6.2V33.8A3.26,3.26,0,0,0,9.33,37H30.67A3.26,3.26,0,0,0,34,33.8V13.11A3.11,3.11,0,0,0,33,10.86Z"/><path id="路径_20687-2" data-name="路径 20687-2" class="cls-2" d="M10.11,4H23.16a3.2,3.2,0,0,1,2.2.88l6.73,6.54A3,3,0,0,1,33,13.55V33a3.07,3.07,0,0,1-3.11,3H10.11A3.07,3.07,0,0,1,7,33V7A3.07,3.07,0,0,1,10.11,4Z"/><path id="路径_20690" data-name="路径 20690" class="cls-3" d="M31,32a2,2,0,0,1-2.06,2H11.06A2,2,0,0,1,9,32V8a2,2,0,0,1,2.06-2H22.79a2.13,2.13,0,0,1,.79.15,2.19,2.19,0,0,1,.67.45l6.15,6.06a2.06,2.06,0,0,1,.44.66,2,2,0,0,1,.16.78Z"/><path class="cls-4" d="M19.36,26.52l-1.43,1.39a2,2,0,0,1-2.82-2.82l3.66-3.67a2,2,0,0,1,2.73-.07l.09.08a.81.81,0,0,0,1.14,0,.8.8,0,0,0,0-1.14h0a1.15,1.15,0,0,0-.14-.17,3.6,3.6,0,0,0-4.91.18L14,24a3.61,3.61,0,0,0,5.1,5.1l1.39-1.36a.81.81,0,0,0-1.1-1.17ZM28,15.05a3.61,3.61,0,0,0-5.09,0l-1.4,1.36a.81.81,0,0,0,.05,1.14.82.82,0,0,0,1.06,0L24,16.19A2,2,0,0,1,26.79,19l-3.66,3.67a2,2,0,0,1-2.73.07l-.09-.08a.81.81,0,0,0-1.14,0,.8.8,0,0,0,0,1.14l.18.17a3.6,3.6,0,0,0,4.91-.18l3.66-3.66a3.61,3.61,0,0,0,0-5.1Z"/><path class="cls-5" d="M18.34,25.52l-1.43,1.39a2,2,0,0,1-2.82-2.82l3.66-3.67a2,2,0,0,1,2.73-.07l.1.08a.81.81,0,0,0,1.14,0,.81.81,0,0,0,0-1.14h0l-.15-.17a3.59,3.59,0,0,0-4.9.18L13,23a3.61,3.61,0,0,0,5.1,5.1l1.39-1.36a.81.81,0,0,0-1.1-1.17ZM27,14.05a3.62,3.62,0,0,0-5.1,0l-1.39,1.36a.81.81,0,0,0,1.1,1.17L23,15.19A2,2,0,0,1,25.77,18l-3.65,3.67a2,2,0,0,1-2.73.07l-.1-.08a.81.81,0,0,0-1.13,1.15,1.54,1.54,0,0,0,.19.17,3.59,3.59,0,0,0,4.9-.18l3.67-3.66a3.62,3.62,0,0,0,0-5.1Z"/></svg>