<svg id="图层_1" data-name="图层 1" xmlns="http://www.w3.org/2000/svg" viewBox="0 0 16 16"><defs><style>.cls-1{fill:#fff;}</style></defs><path class="cls-1" d="M8.37,3,6.26,5.33,6,5.61v7l-1-.65V5.61l-.26-.28L2.63,3H8.37M9.5,2h-8a.5.5,0,0,0-.4.8L4,6v5.92a1,1,0,0,0,.43.8l1.79,1.2A.6.6,0,0,0,6.5,14a.5.5,0,0,0,.5-.5V6L9.9,2.8A.5.5,0,0,0,9.5,2Z"/><rect class="cls-1" x="8" y="8" width="6" height="1"/><rect class="cls-1" x="8" y="10" width="4" height="1"/><rect class="cls-1" x="8" y="12" width="2" height="1"/></svg>