<svg id="图层_1" data-name="图层 1" xmlns="http://www.w3.org/2000/svg" viewBox="0 0 16 16"><defs><style>.cls-1{fill:#1487fb;}</style></defs><rect class="cls-1" x="1" y="2" width="3" height="1"/><rect class="cls-1" x="5" y="2" width="10" height="1"/><path class="cls-1" d="M5,2V3H4V2H5M6,1H3V4H6V1Z"/><rect class="cls-1" x="1" y="12" width="3" height="1"/><rect class="cls-1" x="5" y="12" width="10" height="1"/><path class="cls-1" d="M5,12v1H4V12H5m1-1H3v3H6V11Z"/><rect class="cls-1" x="12" y="7" width="3" height="1" transform="translate(27 15) rotate(180)"/><rect class="cls-1" x="1" y="7" width="10" height="1" transform="translate(12 15) rotate(180)"/><path class="cls-1" d="M12,7V8H11V7h1m1-1H10V9h3V6Z"/></svg>