<svg id="图层_1" data-name="图层 1" xmlns="http://www.w3.org/2000/svg" xmlns:xlink="http://www.w3.org/1999/xlink" viewBox="0 0 16 16"><defs><style>.cls-1{fill:url(#未命名的渐变_55);}.cls-2{fill:url(#未命名的渐变_55-2);}</style><linearGradient id="未命名的渐变_55" x1="5" y1="2" x2="11" y2="2" gradientUnits="userSpaceOnUse"><stop offset="0" stop-color="#0c2"/><stop offset="0.5" stop-color="#0c2"/><stop offset="0.99" stop-color="#76f488"/></linearGradient><linearGradient id="未命名的渐变_55-2" x1="2" y1="8.5" x2="14" y2="8.5" xlink:href="#未命名的渐变_55"/></defs><rect class="cls-1" x="5" y="1" width="6" height="2" rx="1"/><path class="cls-2" d="M12,2V3a1,1,0,0,1-1,1H5A1,1,0,0,1,4,3V2A2,2,0,0,0,2,4v9a2,2,0,0,0,2,2h8a2,2,0,0,0,2-2V4A2,2,0,0,0,12,2ZM4,6H8V7H4Zm8,4H4V9h8Z"/></svg>