<svg id="图层_1" data-name="图层 1" xmlns="http://www.w3.org/2000/svg" xmlns:xlink="http://www.w3.org/1999/xlink" viewBox="0 0 16 16"><defs><style>.cls-1{fill:url(#未命名的渐变_30);}.cls-2{fill:url(#未命名的渐变_30-2);}</style><linearGradient id="未命名的渐变_30" x1="2.18" y1="14" x2="14.06" y2="14" gradientUnits="userSpaceOnUse"><stop offset="0" stop-color="#008cff"/><stop offset="0.5" stop-color="#008cff"/><stop offset="1" stop-color="#7bbdff"/></linearGradient><linearGradient id="未命名的渐变_30-2" x1="2" y1="6.5" x2="14" y2="6.5" xlink:href="#未命名的渐变_30"/></defs><path class="cls-1" d="M8,15a2,2,0,0,1-2-2h4A2,2,0,0,1,8,15Z"/><path class="cls-2" d="M13.43,12H2.57A.55.55,0,0,1,2,11.46V11.3a.64.64,0,0,1,.5-.61,1.78,1.78,0,0,0,.55-1.36V9.21h0V6.65A4.78,4.78,0,0,1,7,2V2a1.05,1.05,0,0,1,2.1,0V2A4.78,4.78,0,0,1,13,6.65V9.29h0V9.4a1.81,1.81,0,0,0,.55,1.37.55.55,0,0,1,.5.53v.16A.56.56,0,0,1,13.43,12Z"/></svg>