<svg id="图层_1" data-name="图层 1" xmlns="http://www.w3.org/2000/svg" xmlns:xlink="http://www.w3.org/1999/xlink" viewBox="0 0 16 16"><defs><style>.cls-1{fill:url(#未命名的渐变_65);}.cls-2{fill:url(#未命名的渐变_68);}.cls-3{fill:url(#未命名的渐变_67);}.cls-4{fill:url(#未命名的渐变_65-2);}</style><linearGradient id="未命名的渐变_65" x1="1.46" y1="4" x2="14.91" y2="4" gradientUnits="userSpaceOnUse"><stop offset="0" stop-color="#f75757"/><stop offset="0.47" stop-color="#f75757"/><stop offset="1" stop-color="#fa9a9a"/></linearGradient><linearGradient id="未命名的渐变_68" x1="1" y1="11.5" x2="14.87" y2="11.5" xlink:href="#未命名的渐变_65"/><linearGradient id="未命名的渐变_67" x1="1.46" y1="4" x2="15.11" y2="4" gradientUnits="userSpaceOnUse"><stop offset="0" stop-color="#f75757"/><stop offset="0.47" stop-color="#f75757"/><stop offset="1" stop-color="#fa9a9a"/></linearGradient><linearGradient id="未命名的渐变_65-2" x1="1.14" y1="11.5" x2="15.93" y2="11.5" xlink:href="#未命名的渐变_65"/></defs><circle class="cls-1" cx="6.5" cy="4" r="3"/><path class="cls-2" d="M7.76,8H5.24C2.9,8,1,10.33,1,13.19v.31C1,15,2.87,15,5.24,15H7.76C10,15,12,15,12,13.5v-.31C12,10.33,10.1,8,7.76,8Z"/><path class="cls-3" d="M10.15,1,10,1a3.93,3.93,0,0,1,0,6l.15,0A2.93,2.93,0,0,0,13,4,2.93,2.93,0,0,0,10.15,1Z"/><path class="cls-4" d="M11,8a7.29,7.29,0,0,1,2.36,5.67v.39a1.57,1.57,0,0,1-.26.93c1.13-.13,1.9-.48,1.9-1.44v-.31C15,10.4,13.21,8.08,11,8Z"/></svg>