<svg id="图层_1" data-name="图层 1" xmlns="http://www.w3.org/2000/svg" xmlns:xlink="http://www.w3.org/1999/xlink" viewBox="0 0 16 16"><defs><style>.cls-1{fill:url(#未命名的渐变_30);}.cls-2{fill:#fff;}</style><linearGradient id="未命名的渐变_30" x1="1" y1="8" x2="15" y2="8" gradientUnits="userSpaceOnUse"><stop offset="0" stop-color="#008cff"/><stop offset="0.5" stop-color="#008cff"/><stop offset="1" stop-color="#7bbdff"/></linearGradient></defs><path class="cls-1" d="M12,14H4a3,3,0,0,1-3-3V5A3,3,0,0,1,4,2h8a3,3,0,0,1,3,3v6A3,3,0,0,1,12,14Z"/><path class="cls-2" d="M15,8.25v1.5L11.57,7.18a1,1,0,0,0-1.18,0l-8.51,6a3,3,0,0,1-.66-1l8.6-6a2,2,0,0,1,2.35,0Z"/><circle class="cls-2" cx="4.5" cy="5.5" r="1.5"/></svg>