<svg id="图层_1" data-name="图层 1" xmlns="http://www.w3.org/2000/svg" viewBox="0 0 16 16"><defs><style>.cls-1{fill:#4f4f4f;}</style></defs><path class="cls-1" d="M6.42,10.59a3.11,3.11,0,0,0-.68-.77,3.49,3.49,0,0,0-3.85-.43A3.5,3.5,0,1,0,7,12.5,3.41,3.41,0,0,0,6.42,10.59ZM3.5,15a2.5,2.5,0,0,1-1.15-4.72A2.44,2.44,0,0,1,3.5,10,2.49,2.49,0,0,1,6,12.5,2.5,2.5,0,0,1,3.5,15Z"/><path class="cls-1" d="M12.5,9a3.48,3.48,0,0,0-1.61.39,3,3,0,0,0-.63.43,3.37,3.37,0,0,0-.69.77A3.5,3.5,0,1,0,12.5,9Zm0,6A2.5,2.5,0,0,1,10,12.5a2.4,2.4,0,0,1,.29-1.16,2.35,2.35,0,0,1,.63-.77,2.16,2.16,0,0,1,.43-.29A2.44,2.44,0,0,1,12.5,10a2.5,2.5,0,0,1,0,5Z"/><path class="cls-1" d="M14.87.87,6.42,10.59a3.11,3.11,0,0,0-.68-.77L14.12.17a.5.5,0,0,1,.71,0A.53.53,0,0,1,14.87.87Z"/><path class="cls-1" d="M10.26,9.82a3.37,3.37,0,0,0-.69.77L1.13.87a.53.53,0,0,1,0-.74.5.5,0,0,1,.71,0Z"/></svg>