<svg id="图层_1" data-name="图层 1" xmlns="http://www.w3.org/2000/svg" xmlns:xlink="http://www.w3.org/1999/xlink" viewBox="0 0 36 36"><defs><style>.cls-1{fill:url(#未命名的渐变_8);}.cls-2,.cls-3{fill:#fff;}.cls-3{opacity:0.8;}</style><linearGradient id="未命名的渐变_8" x1="34.1" y1="34.1" x2="1.81" y2="1.81" gradientUnits="userSpaceOnUse"><stop offset="0" stop-color="#ffa912"/><stop offset="1" stop-color="#ffbe4d"/></linearGradient></defs><rect class="cls-1" width="36" height="36" rx="6"/><path class="cls-2" d="M24.35,21.5V16A6.2,6.2,0,0,0,18,10a6.2,6.2,0,0,0-6.35,6v5.5L9,25H27Z"/><path class="cls-3" d="M18,29a3,3,0,0,0,3-3H15A3,3,0,0,0,18,29Z"/><path class="cls-3" d="M18,9a6.7,6.7,0,0,1,3,.7A3,3,0,0,0,15,9.7,6.7,6.7,0,0,1,18,9Z"/></svg>