<svg id="图层_1" data-name="图层 1" xmlns="http://www.w3.org/2000/svg" xmlns:xlink="http://www.w3.org/1999/xlink" viewBox="0 0 40 40"><defs><style>.cls-1{fill:url(#未命名的渐变_8);}.cls-2,.cls-3{fill:#fff;}.cls-3{opacity:0.8;}</style><linearGradient id="未命名的渐变_8" x1="38.08" y1="38.08" x2="1.82" y2="1.82" gradientUnits="userSpaceOnUse"><stop offset="0" stop-color="#ffa912"/><stop offset="1" stop-color="#ffbe4d"/></linearGradient></defs><rect class="cls-1" width="40" height="40" rx="6"/><path class="cls-2" d="M26.35,23.5V18A6.2,6.2,0,0,0,20,12a6.2,6.2,0,0,0-6.35,6v5.5L11,27H29Z"/><path class="cls-3" d="M20,31a3,3,0,0,0,3-3H17A3,3,0,0,0,20,31Z"/><path class="cls-3" d="M20,11a6.7,6.7,0,0,1,3,.7,3,3,0,0,0-5.94,0A6.7,6.7,0,0,1,20,11Z"/></svg>