<svg id="图层_1" data-name="图层 1" xmlns="http://www.w3.org/2000/svg" viewBox="0 0 16 16"><defs><style>.cls-1{fill:#4f4f4f;}</style></defs><rect class="cls-1" x="7.5" y="10.01" width="1" height="5.99"/><path class="cls-1" d="M11,13a.44.44,0,0,1-.35-.16l-2.3-2.55a.45.45,0,0,0-.7,0l-2.3,2.55a.45.45,0,0,1-.7,0,.6.6,0,0,1,0-.79L6.94,9.5a1.4,1.4,0,0,1,2.12,0l2.29,2.55a.6.6,0,0,1,0,.79A.44.44,0,0,1,11,13Z"/><path class="cls-1" d="M2,5H4.15a1.06,1.06,0,0,1,.75.31l1.2,1.2A1.62,1.62,0,0,0,7.27,7H14a1,1,0,0,1,1,1v6a1,1,0,0,1-1,1H2a1,1,0,0,1-1-1V6A1,1,0,0,1,2,5H2M2,4A2,2,0,0,0,0,6v8a2,2,0,0,0,2,2H14a2,2,0,0,0,2-2V8a2,2,0,0,0-2-2H7.27a.67.67,0,0,1-.47-.2L5.6,4.61A2,2,0,0,0,4.15,4Z"/><rect class="cls-1" x="7" y="3" width="5" height="1"/><path class="cls-1" d="M12.81,1H3.19A2.19,2.19,0,0,0,1,3.19V5H2V3.19A1.19,1.19,0,0,1,3.19,2h9.62A1.19,1.19,0,0,1,14,3.19V7h.8a.2.2,0,0,0,.2-.2V3.19A2.19,2.19,0,0,0,12.81,1Z"/></svg>