<svg id="图层_1" data-name="图层 1" xmlns="http://www.w3.org/2000/svg" viewBox="0 0 16 16"><defs><style>.cls-1{fill:#4f4f4f;}</style></defs><path class="cls-1" d="M15,11.71a.51.51,0,0,0-.15-.36L12.5,9l-2.35,2.35a.51.51,0,0,0-.15.36.5.5,0,0,0,.15.35.48.48,0,0,0,.7,0l1.65-1.65,1.65,1.65a.48.48,0,0,0,.7,0,.5.5,0,0,0,.15-.35Z"/><polygon class="cls-1" points="13 15 13 10 12 10 12 15 13 15 13 15"/><path class="cls-1" d="M6,1H2A1,1,0,0,0,1,2V13a1,1,0,0,0,1,1H8V13H2V7H14V8h1V4a1,1,0,0,0-1-1H8L6,1ZM2,6V2H5.59l1.7,1.71.3.29H14V6Z"/></svg>