<svg id="图层_1" data-name="图层 1" xmlns="http://www.w3.org/2000/svg" xmlns:xlink="http://www.w3.org/1999/xlink" viewBox="0 0 40 40"><defs><style>.cls-1{fill:url(#未命名的渐变_2);}.cls-2{fill:url(#未命名的渐变_3);}.cls-3{fill:url(#未命名的渐变_5);}.cls-4{fill:url(#未命名的渐变_14);}.cls-5{fill:url(#未命名的渐变_4);}.cls-6{fill:url(#未命名的渐变_14-2);}.cls-7{fill:url(#未命名的渐变_13);}.cls-8{fill:url(#未命名的渐变_13-2);}.cls-9{fill:#fff;}</style><linearGradient id="未命名的渐变_2" x1="-122.07" y1="-306.86" x2="-122.07" y2="-307.15" gradientTransform="matrix(131.24, 0, 0, -164.76, 16042.53, -50563.02)" gradientUnits="userSpaceOnUse"><stop offset="0.19" stop-color="#dce1e5"/><stop offset="1" stop-color="#f6f9fc"/></linearGradient><linearGradient id="未命名的渐变_3" x1="-122.07" y1="-307.12" x2="-122.07" y2="-306.91" gradientTransform="matrix(131.24, 0, 0, -164.76, 16042.65, -50562.58)" gradientUnits="userSpaceOnUse"><stop offset="0.03" stop-color="#dce1e5"/><stop offset="1" stop-color="#f6f9fc"/></linearGradient><linearGradient id="未命名的渐变_5" x1="-121.98" y1="-307.08" x2="-121.98" y2="-307.32" gradientTransform="matrix(110, 0, 0, -144, 13440.31, -44221.15)" gradientUnits="userSpaceOnUse"><stop offset="0.2" stop-color="#dfe3e8"/><stop offset="1" stop-color="#f6f9fc"/></linearGradient><linearGradient id="未命名的渐变_14" x1="13.45" y1="9" x2="21.76" y2="9" gradientUnits="userSpaceOnUse"><stop offset="0.02" stop-color="#0078ef"/><stop offset="0.91" stop-color="#40adff"/></linearGradient><linearGradient id="未命名的渐变_4" x1="22" y1="11.93" x2="22" y2="13.97" gradientUnits="userSpaceOnUse"><stop offset="0.03" stop-color="#dce1e5"/><stop offset="1" stop-color="#f6f9fc"/></linearGradient><linearGradient id="未命名的渐变_14-2" x1="13.14" y1="13" x2="26.19" y2="13" xlink:href="#未命名的渐变_14"/><linearGradient id="未命名的渐变_13" x1="19.15" y1="24.82" x2="2.94" y2="24.58" gradientUnits="userSpaceOnUse"><stop offset="0.02" stop-color="#0078ef"/><stop offset="0.91" stop-color="#2b99ff"/></linearGradient><linearGradient id="未命名的渐变_13-2" x1="19.92" y1="25.11" x2="2.89" y2="24.87" xlink:href="#未命名的渐变_13"/></defs><path id="路径_20689" data-name="路径 20689" class="cls-1" d="M35,10.86,27.81,3.94A3.4,3.4,0,0,0,25.45,3H11.33A3.26,3.26,0,0,0,8,6.2V33.8A3.26,3.26,0,0,0,11.33,37H32.67A3.26,3.26,0,0,0,36,33.8V13.11A3.11,3.11,0,0,0,35,10.86Z"/><path id="路径_20687-2" data-name="路径 20687-2" class="cls-2" d="M12.11,4H25.16a3.2,3.2,0,0,1,2.2.88l6.73,6.54A3,3,0,0,1,35,13.55V33a3.07,3.07,0,0,1-3.11,3H12.11A3.07,3.07,0,0,1,9,33V7A3.07,3.07,0,0,1,12.11,4Z"/><path id="路径_20690" data-name="路径 20690" class="cls-3" d="M33,32a2,2,0,0,1-2.06,2H13.06A2,2,0,0,1,11,32V8a2,2,0,0,1,2.06-2H24.79a2.13,2.13,0,0,1,.79.15,2.19,2.19,0,0,1,.67.45l6.15,6.06a2.06,2.06,0,0,1,.44.66,2,2,0,0,1,.16.78Z"/><rect class="cls-4" x="14" y="8" width="7" height="2" rx="1"/><rect class="cls-5" x="14" y="12" width="16" height="2" rx="1"/><rect class="cls-6" x="14" y="12" width="11" height="2" rx="1"/><path class="cls-7" d="M19.41,17.59,4.59,32.41A2,2,0,0,1,4,31V19a2,2,0,0,1,2-2H18A2,2,0,0,1,19.41,17.59Z"/><rect class="cls-8" x="4" y="17" width="16" height="16" rx="2"/><polygon class="cls-9" points="9 22 9 29 15 25 9 22"/></svg>