<svg id="图层_1" data-name="图层 1" xmlns="http://www.w3.org/2000/svg" viewBox="0 0 16 16"><defs><style>.cls-1{fill:#4f4f4f;}</style></defs><path class="cls-1" d="M14,1H5A1,1,0,0,0,4,2V7H5V2h9v9H9v1h5a1,1,0,0,0,1-1V2A1,1,0,0,0,14,1Z"/><rect class="cls-1" x="8" y="4" width="4" height="1"/><rect class="cls-1" x="11" y="5" width="1" height="3"/><rect class="cls-1" x="7.38" y="6" width="4.24" height="1" transform="translate(-1.81 8.62) rotate(-45)"/><path class="cls-1" d="M7,10v4H2V9H6V8H2A1,1,0,0,0,1,9v5a1,1,0,0,0,1,1H7a1,1,0,0,0,1-1V10Z"/></svg>