<?xml version="1.0" standalone="no"?><!DOCTYPE svg PUBLIC "-//W3C//DTD SVG 1.1//EN" "http://www.w3.org/Graphics/SVG/1.1/DTD/svg11.dtd"><svg class="icon" width="300px" height="300.00px" viewBox="0 0 1024 1024" version="1.1" xmlns="http://www.w3.org/2000/svg"><path fill="#ffffff" d="M858.624 890.538667H216.576c-55.125333 0-99.84-44.714667-99.84-99.84V221.866667c0-18.773333 15.36-34.133333 34.133333-34.133334h353.962667c11.264 0 21.674667 5.461333 28.16 14.848l71.850667 104.277334h253.952c55.125333 0 99.84 44.714667 99.84 99.84v384.170666c-0.170667 54.954667-45.056 99.669333-100.010667 99.669334zM185.002667 256v534.698667c0 17.408 14.165333 31.573333 31.573333 31.573333h642.048c17.408 0 31.573333-14.165333 31.573333-31.573333V406.528c0-17.408-14.165333-31.573333-31.573333-31.573333H586.752c-11.264 0-21.674667-5.461333-28.16-14.848L486.741333 256H185.002667z"  /><path fill="#ffffff" d="M713.898667 591.872H212.650667c-18.773333 0-34.133333-15.36-34.133334-34.133333s15.36-34.133333 34.133334-34.133334h501.418666c18.773333 0 34.133333 15.36 34.133334 34.133334s-15.36 34.133333-34.304 34.133333z"  /></svg>