<?xml version="1.0" standalone="no"?><!DOCTYPE svg PUBLIC "-//W3C//DTD SVG 1.1//EN" "http://www.w3.org/Graphics/SVG/1.1/DTD/svg11.dtd"><svg class="icon" width="300px" height="300.00px" viewBox="0 0 1024 1024" version="1.1" xmlns="http://www.w3.org/2000/svg"><path fill="#ffffff" d="M469.333333 544a53.333333 53.333333 0 1 1 0 106.666667 53.333333 53.333333 0 0 1 0-106.666667zM273.877333 341.333333c0-120.661333 0-181.034667 34.858667-218.496C343.594667 85.333333 399.744 85.333333 512 85.333333c112.256 0 168.405333 0 203.264 37.504 34.858667 37.461333 34.858667 97.834667 34.858667 218.496v341.333334c0 120.661333 0 181.034667-34.858667 218.496C680.405333 938.666667 624.256 938.666667 512 938.666667c-112.256 0-168.405333 0-203.264-37.504-34.858667-37.461333-34.858667-97.834667-34.858667-218.496V341.333333z m312.789334 0a32 32 0 0 0-64 0v151.466667a117.333333 117.333333 0 1 0 64 104.533333v-151.466666c16 8.192 34.133333 12.8 53.333333 12.8a32 32 0 0 0 0-64c-29.44 0-53.333333-23.893333-53.333333-53.333334zM214.314667 337.109333V686.933333c0 41.898667 0 79.573333 1.962666 112.170667 0.725333 11.52 1.664 22.357333 2.944 32.597333 0.554667 4.565333 1.237333 9.130667 1.962667 13.653334 1.536 9.258667-5.589333 17.92-14.933333 17.109333-18.346667-1.578667-34.986667-5.034667-50.474667-13.525333a134.229333 134.229333 0 0 1-56.362667-60.586667c-7.936-16.682667-11.093333-34.56-12.629333-54.314667C85.333333 714.922667 85.333333 691.413333 85.333333 662.656V361.386667c0-28.757333 0-52.224 1.450667-71.338667 1.493333-19.754667 4.693333-37.632 12.629333-54.272a134.229333 134.229333 0 0 1 56.32-60.586667c15.530667-8.533333 32.128-11.946667 50.517334-13.568 9.344-0.853333 16.469333 7.850667 14.933333 17.066667a358.229333 358.229333 0 0 0-1.962667 13.696c-1.28 10.24-2.218667 21.12-2.944 32.597333-1.962667 32.597333-1.962667 70.229333-1.962666 112.213334zM809.685333 337.109333V686.933333c0 41.898667 0 79.573333-2.005333 112.170667-0.682667 11.52-1.621333 22.357333-2.901333 32.597333a354.688 354.688 0 0 1-1.962667 13.653334c-1.536 9.258667 5.589333 17.92 14.933333 17.109333 18.346667-1.578667 34.986667-5.034667 50.474667-13.525333a134.272 134.272 0 0 0 56.405333-60.586667c7.893333-16.682667 11.093333-34.56 12.586667-54.314667 1.450667-19.072 1.450667-42.581333 1.450667-71.296V361.301333c0-28.757333 0-52.266667-1.450667-71.338666-1.493333-19.754667-4.693333-37.632-12.629333-54.272a134.272 134.272 0 0 0-56.32-60.586667c-15.530667-8.533333-32.128-11.946667-50.517334-13.568-9.344-0.853333-16.469333 7.850667-14.933333 17.066667a511.658667 511.658667 0 0 1 4.906667 46.293333c1.962667 32.597333 1.962667 70.229333 1.962666 112.213333z" /></svg>