<?xml version="1.0" standalone="no"?><!DOCTYPE svg PUBLIC "-//W3C//DTD SVG 1.1//EN" "http://www.w3.org/Graphics/SVG/1.1/DTD/svg11.dtd"><svg class="icon" width="300px" height="295.67px" viewBox="0 0 1039 1024" version="1.1" xmlns="http://www.w3.org/2000/svg"><path fill="#ffffff" d="M429.159912 857.977864a428.988932 428.988932 0 1 1 429.159912-428.988932 429.501872 429.501872 0 0 1-429.159912 428.988932zM429.159912 68.392018a360.596914 360.596914 0 1 0 360.767894 360.596914A361.109854 361.109854 0 0 0 429.159912 68.392018z"  /><path fill="#ffffff" d="M1005.020702 1023.999487a34.196009 34.196009 0 0 1-24.279166-9.916843L691.4433 724.784409a34.196009 34.196009 0 0 1 48.387353-48.387353l289.298235 289.298236a34.196009 34.196009 0 0 1 0 48.387352 34.196009 34.196009 0 0 1-24.108186 9.916843z"  /><path fill="#ffffff" d="M436.683034 435.144213m-254.076346 0a254.076346 254.076346 0 1 0 508.152692 0 254.076346 254.076346 0 1 0-508.152692 0Z"  /></svg>