<svg id="图层_1" data-name="图层 1" xmlns="http://www.w3.org/2000/svg" viewBox="0 0 32 32"><defs><style>.cls-1{fill:#4f4f4f;}</style></defs><path class="cls-1" d="M27,8H5a1,1,0,1,0,0,2H27a1,1,0,1,0,0-2Z"/><path class="cls-1" d="M20,6V8H12V6h8m0-2H12a2,2,0,0,0-2,2v4H22V6a2,2,0,0,0-2-2Z"/><path class="cls-1" d="M24,10V24a2,2,0,0,1-2,2H10a2,2,0,0,1-2-2V10H26m0-2H6V24a4,4,0,0,0,4,4H22a4,4,0,0,0,4-4V8Z"/><polygon class="cls-1" points="20 13 18 13 18 23 20 23 20 13 20 13"/><polygon class="cls-1" points="14 13 12 13 12 23 14 23 14 13 14 13"/></svg>